<?xml version="1.0" standalone="no"?>
<!DOCTYPE svg PUBLIC "-//W3C//DTD SVG 20010904//EN"
 "http://www.w3.org/TR/2001/REC-SVG-20010904/DTD/svg10.dtd">
<svg version="1.0" xmlns="http://www.w3.org/2000/svg"
 width="300.000000pt" height="300.000000pt" viewBox="0 0 300.000000 300.000000"
 preserveAspectRatio="xMidYMid meet">
<metadata>
Created by potrace 1.10, written by Peter Selinger 2001-2011
</metadata>
<g transform="translate(0.000000,300.000000) scale(0.100000,-0.100000)"
fill="#000000" stroke="none">
<path d="M2083 2775 c-82 -15 -181 -58 -231 -100 -88 -74 -105 -213 -36 -295
25 -29 25 -31 9 -56 -9 -14 -23 -28 -31 -31 -22 -8 -17 -51 8 -64 27 -14 106
-6 148 16 26 14 40 14 81 6 84 -18 275 -14 362 8 91 24 126 41 178 88 105 95
108 234 7 330 -94 91 -305 133 -495 98z m270 -59 c183 -35 276 -136 233 -251
-28 -72 -106 -129 -216 -156 -66 -16 -284 -16 -352 0 -42 10 -50 9 -90 -14
-37 -21 -88 -33 -88 -21 0 2 14 18 30 36 32 34 38 64 17 77 -8 4 -24 22 -36
39 -27 37 -30 107 -8 150 64 122 286 183 510 140z"/>
<path d="M2302 2648 c-16 -16 -15 -33 4 -48 22 -19 54 12 38 37 -14 22 -27 26
-42 11z"/>
<path d="M2031 2627 c-18 -18 -15 -222 4 -237 24 -20 45 5 45 52 l0 39 38 -3
c33 -3 37 -6 34 -29 -2 -14 5 -36 16 -48 17 -22 19 -22 35 -6 13 13 17 35 17
103 0 101 -6 128 -28 137 -22 8 -33 -6 -39 -54 -5 -40 -7 -41 -43 -41 -33 0
-37 3 -33 20 12 46 -20 93 -46 67z"/>
<path d="M2302 2558 c-14 -14 -16 -136 -3 -156 5 -8 17 -12 27 -10 16 3 19 14
22 77 3 87 -14 121 -46 89z"/>
<path d="M2416 2444 c-9 -22 12 -46 38 -42 15 2 21 10 21 28 0 20 -6 26 -26
28 -18 2 -29 -3 -33 -14z"/>
<path d="M883 2760 c-18 -11 -35 -30 -39 -44 -4 -17 -14 -25 -37 -29 -26 -4
-36 0 -55 23 -55 69 -147 55 -189 -28 -23 -47 -50 -71 -101 -92 -53 -21 -68
-69 -34 -110 25 -31 17 -66 -19 -81 -17 -6 -34 -20 -39 -30 -17 -30 -12 -78
10 -96 28 -25 25 -50 -10 -68 -48 -25 -65 -80 -37 -119 12 -16 8 -31 -24 -110
-66 -160 -90 -271 -96 -443 -6 -161 0 -190 37 -178 9 3 23 -1 30 -10 16 -20
47 -19 58 1 15 27 22 3 42 -139 20 -143 53 -312 76 -386 13 -42 12 -47 -4 -58
-61 -45 -82 -94 -59 -141 25 -54 174 -66 297 -25 74 24 86 50 98 221 5 73 12
135 15 138 3 3 18 -1 34 -9 16 -9 58 -21 93 -28 36 -7 66 -14 68 -15 2 -1 7
-52 12 -113 14 -179 28 -192 210 -198 106 -4 118 -2 155 19 74 44 70 117 -10
164 -33 19 -41 29 -38 47 4 22 5 22 188 19 269 -5 439 21 676 104 215 74 393
195 511 347 108 139 130 202 84 232 -21 14 -28 14 -58 2 -18 -8 -50 -28 -72
-45 -31 -26 -46 -31 -83 -30 -38 2 -49 -2 -69 -25 -13 -16 -24 -34 -24 -41 0
-26 -25 -37 -46 -21 -44 34 -121 10 -144 -45 -14 -34 -55 -48 -79 -26 -48 43
-121 39 -160 -10 -24 -31 -38 -30 -74 4 -37 36 -104 38 -139 5 -29 -28 -55
-29 -62 -5 -18 57 -99 82 -151 48 -36 -23 -53 -20 -60 13 -9 41 -29 55 -70 48
-31 -5 -35 -3 -35 17 0 27 -29 56 -56 56 -18 0 -21 12 -31 123 -7 67 -24 167
-38 222 -14 55 -25 101 -25 102 0 2 11 3 25 3 46 0 134 41 185 87 58 52 101
130 119 213 6 30 17 79 23 108 14 66 4 88 -40 85 -25 -2 -31 1 -34 19 -2 11
-11 26 -20 32 -14 8 -22 6 -39 -11 -21 -20 -22 -20 -40 -2 -24 24 -56 11 -61
-23 -2 -15 -10 -23 -23 -24 -41 -2 -45 -4 -45 -25 0 -11 5 -29 10 -39 14 -26
-13 -82 -50 -104 -22 -13 -120 -24 -120 -13 0 1 -7 40 -15 87 -18 104 -18 100
-1 100 35 0 178 53 204 75 51 43 85 166 60 214 -42 79 -180 100 -247 38 -21
-20 -40 -26 -97 -30 -69 -5 -72 -5 -85 20 -14 27 -57 53 -86 53 -10 0 -33 -9
-50 -20z m87 -45 c10 -12 10 -19 2 -27 -8 -8 -13 -7 -18 5 -8 21 -44 22 -44 2
0 -8 -7 -15 -15 -15 -19 0 -19 9 2 32 20 22 56 23 73 3z m400 -8 c15 -8 26
-23 28 -39 5 -39 -37 -57 -165 -68 -60 -6 -133 -15 -163 -19 -221 -37 -344
-38 -413 -5 -36 17 -38 17 -55 0 -16 -16 -16 -18 6 -36 12 -10 22 -24 22 -31
0 -17 30 -49 47 -49 8 0 25 12 38 26 l24 26 16 -32 c9 -17 28 -36 42 -43 23
-10 28 -8 53 20 15 17 30 37 33 44 3 10 13 4 33 -19 39 -45 81 -42 106 6 23
48 24 48 57 13 16 -17 36 -31 45 -31 21 0 66 44 66 65 0 22 20 18 46 -10 13
-14 34 -25 49 -25 25 0 65 31 65 50 0 10 39 34 46 27 3 -2 2 -12 -2 -21 -12
-30 -87 -63 -246 -106 -87 -24 -158 -48 -158 -53 0 -5 27 -8 63 -5 l64 4 17
-91 c10 -49 44 -169 76 -265 81 -241 98 -323 112 -540 13 -209 2 -414 -32
-605 -25 -138 -25 -130 9 -145 43 -17 78 -57 63 -72 -9 -9 -15 -8 -25 7 -18
24 -39 11 -31 -21 7 -29 -12 -33 -21 -4 -8 26 -29 26 -22 0 5 -18 0 -20 -36
-20 -61 1 -127 16 -143 32 -9 9 -18 58 -25 148 -11 140 -32 293 -43 321 -6 13
3 19 39 28 45 11 66 34 49 51 -5 5 -44 0 -89 -11 -60 -15 -98 -18 -151 -14
-46 4 -74 3 -78 -4 -13 -21 -36 -179 -50 -344 -8 -92 -19 -174 -25 -181 -12
-15 -71 -30 -153 -41 -45 -6 -47 -5 -50 21 -4 35 -21 41 -46 14 -13 -14 -22
-18 -27 -10 -10 16 20 57 55 75 17 9 30 24 30 35 0 10 -13 74 -30 142 -16 67
-40 186 -51 264 -25 167 -21 229 16 246 34 15 38 36 17 77 l-19 37 33 158 c18
87 40 180 49 207 17 50 14 69 -9 69 -24 0 -37 -27 -65 -142 -41 -162 -58 -291
-43 -330 9 -26 8 -34 -10 -59 -27 -36 -38 -37 -38 -4 0 16 -6 25 -15 25 -10 0
-15 -10 -15 -30 0 -20 -5 -30 -15 -30 -8 0 -15 8 -15 18 0 9 -4 23 -9 31 -8
12 -12 12 -25 2 -18 -15 -18 -18 -16 74 3 153 68 390 157 574 32 65 42 95 34
100 -14 9 16 170 54 291 23 70 62 130 86 130 5 0 9 9 9 21 0 55 55 91 97 64
13 -9 28 -27 33 -41 9 -24 13 -25 67 -20 225 20 345 28 364 23 17 -5 31 2 56
28 29 30 40 35 81 35 26 0 58 -6 72 -13z m-60 -146 c0 -5 -6 -14 -14 -20 -10
-8 -16 -8 -25 3 -9 11 -9 15 1 19 21 9 38 8 38 -2z m-170 -27 c0 -9 -7 -14
-17 -12 -25 5 -28 28 -4 28 12 0 21 -6 21 -16z m-150 -13 c0 -5 -6 -14 -14
-20 -16 -13 -32 2 -21 19 8 12 35 13 35 1z m510 -161 c6 0 18 13 29 30 20 33
34 30 25 -6 -8 -29 19 -43 48 -25 27 17 34 7 16 -21 -8 -13 -21 -48 -28 -78
-19 -82 -53 -152 -96 -200 -43 -48 -123 -90 -170 -90 -30 0 -32 3 -65 92 -19
51 -35 95 -36 98 -2 3 17 6 41 7 76 3 133 45 155 115 7 21 10 47 6 58 -5 16
-2 20 14 20 17 0 21 7 22 33 l1 32 14 -32 c8 -18 19 -33 24 -33z m-1116 -224
c-7 -30 -24 -35 -24 -8 0 18 20 45 27 38 2 -2 1 -15 -3 -30z m2366 -664 c0 -5
-12 -27 -27 -50 -69 -101 -309 -231 -543 -294 -285 -76 -535 -97 -723 -60
l-89 17 6 50 c3 28 6 92 6 144 0 90 1 93 18 78 25 -23 210 -95 289 -113 109
-25 410 -30 525 -9 176 32 329 96 458 194 66 50 80 58 80 43z m-1332 -54 c22
-22 15 -37 -13 -25 -26 13 -34 37 -12 37 7 0 18 -5 25 -12z m976 -87 c5 -7
-42 -31 -60 -31 -14 0 0 22 19 30 29 12 35 12 41 1z m-684 -36 c14 -17 8 -18
-39 -9 -17 4 -28 10 -25 15 8 14 50 10 64 -6z m230 -36 c0 -5 -18 -9 -40 -9
-45 0 -51 7 -18 19 25 9 58 3 58 -10z m214 12 c7 -11 -18 -21 -52 -21 -26 1
-26 1 -8 15 22 17 52 20 60 6z m405 -57 c-16 -17 -26 -21 -33 -13 -8 7 -2 17
19 35 36 29 47 13 14 -22z m-69 -33 c0 -24 -13 -33 -35 -25 -15 6 -14 8 1 25
22 24 34 24 34 0z m-67 -42 c-3 -15 -18 -33 -35 -43 -33 -20 -33 -20 -42 12
-7 19 -2 25 36 42 23 10 43 18 44 17 1 -1 0 -14 -3 -28z m-1449 -21 c3 -15 8
-57 12 -94 l7 -67 -33 7 c-19 3 -35 8 -37 10 -3 2 0 21 6 43 6 21 11 53 11 71
0 46 -27 42 -39 -5 -5 -21 -13 -52 -18 -69 l-8 -32 -36 14 -35 15 9 68 10 69
72 -1 c72 -1 74 -2 79 -29z m1338 -61 c-4 -8 -86 -47 -98 -47 -7 0 -4 54 4 67
4 7 25 18 47 25 39 13 40 13 46 -12 3 -14 3 -29 1 -33z m-135 6 c-3 -10 -8
-29 -11 -43 -4 -20 -17 -30 -58 -44 -29 -11 -58 -21 -64 -23 -7 -3 -11 13 -10
46 l1 50 50 7 c28 3 59 10 70 15 11 4 21 8 23 8 2 1 1 -7 -1 -16z m-772 -83
c-5 -40 -3 -60 4 -60 9 0 31 60 31 88 0 13 26 17 33 5 3 -5 0 -34 -6 -65 l-10
-58 -60 0 c-57 0 -59 1 -53 23 4 12 9 46 13 75 5 47 8 52 30 52 25 0 25 -1 18
-60z m585 12 c0 -48 -1 -49 -37 -60 -21 -6 -54 -14 -73 -17 l-35 -6 3 54 4 54
61 10 c34 6 65 11 70 12 4 0 7 -21 7 -47z m-350 -29 c0 -27 -4 -53 -8 -59 -4
-7 -36 -14 -70 -15 l-64 -4 6 35 c3 19 6 47 6 63 0 27 1 27 65 27 l65 0 0 -47z
m167 1 c-2 -25 -9 -49 -13 -54 -5 -4 -32 -11 -60 -15 l-51 -6 1 60 1 61 64 0
64 0 -6 -46z"/>
<path d="M1246 2673 c-4 -9 0 -23 9 -32 13 -14 17 -14 31 1 9 9 14 24 11 32
-8 21 -43 20 -51 -1z"/>
<path d="M1334 2679 c-3 -6 0 -17 8 -25 13 -13 16 -13 27 0 7 8 10 20 6 26 -8
13 -32 13 -41 -1z"/>
<path d="M641 2666 c-15 -17 1 -56 23 -56 23 0 41 30 29 48 -14 23 -37 26 -52
8z"/>
<path d="M517 2363 c-12 -11 -8 -23 8 -23 8 0 15 6 16 13 0 6 5 1 10 -12 7
-18 13 -21 21 -13 16 16 2 42 -25 42 -13 0 -27 -3 -30 -7z"/>
<path d="M937 2323 c-4 -3 -7 -15 -7 -25 0 -28 34 -19 38 10 3 21 -16 31 -31
15z"/>
<path d="M994 2305 c-7 -29 -1 -41 15 -30 14 8 14 55 1 55 -5 0 -12 -11 -16
-25z"/>
<path d="M1038 2306 c-3 -14 0 -30 5 -35 15 -15 37 6 37 35 0 34 -36 33 -42 0z"/>
<path d="M994 1626 c-10 -26 4 -48 28 -44 17 2 23 10 23 28 0 18 -6 26 -23 28
-13 2 -25 -3 -28 -12z"/>
<path d="M1196 1315 c-27 -25 -53 -45 -58 -45 -4 0 -8 -9 -8 -20 0 -34 35 -23
91 28 37 35 51 53 46 65 -9 25 -17 22 -71 -28z"/>
<path d="M482 1308 c-15 -15 -16 -54 -1 -64 19 -11 31 12 22 45 -7 25 -11 29
-21 19z"/>
<path d="M530 1290 c0 -20 33 -60 49 -60 23 0 21 24 -5 51 -33 34 -44 36 -44
9z"/>
<path d="M484 1199 c-3 -6 0 -17 8 -25 13 -13 16 -13 27 0 7 8 10 20 6 26 -8
13 -32 13 -41 -1z"/>
<path d="M544 1195 c-7 -18 3 -35 21 -35 18 0 26 25 12 39 -15 15 -27 14 -33
-4z"/>
<path d="M1483 2324 c-17 -8 -16 -39 1 -53 34 -28 90 2 68 36 -9 14 -52 24
-69 17z"/>
<path d="M2737 2529 c-23 -13 -13 -29 19 -29 18 0 25 5 22 17 -4 21 -18 25
-41 12z"/>
<path d="M2800 2496 c0 -21 21 -31 30 -15 5 7 6 17 4 21 -9 14 -34 9 -34 -6z"/>
<path d="M2742 2458 c7 -20 48 -23 48 -4 0 11 -9 16 -26 16 -16 0 -24 -5 -22
-12z"/>
<path d="M2672 1048 c2 -12 11 -24 21 -26 14 -3 18 1 15 20 -2 12 -11 24 -21
26 -14 3 -18 -1 -15 -20z"/>
<path d="M1520 642 c-21 -4 -35 -13 -35 -22 0 -12 58 -14 403 -15 222 0 405 2
407 5 2 3 0 12 -5 20 -8 13 -68 15 -372 17 -200 1 -379 -2 -398 -5z"/>
<path d="M813 634 c-19 -8 -16 -31 5 -35 9 -3 52 -3 95 -1 67 3 78 6 75 20 -3
14 -17 17 -83 19 -44 1 -86 -1 -92 -3z"/>
<path d="M2345 620 c-4 -7 -3 -16 3 -22 14 -14 57 -6 57 12 0 18 -50 26 -60
10z"/>
<path d="M277 604 c-17 -17 -5 -34 24 -34 24 0 30 4 27 18 -3 17 -38 29 -51
16z"/>
<path d="M2602 593 c2 -12 12 -18 28 -18 16 0 26 6 28 18 3 13 -3 17 -28 17
-25 0 -31 -4 -28 -17z"/>
<path d="M1564 529 c-11 -19 12 -31 45 -24 43 9 41 35 -3 35 -19 0 -38 -5 -42
-11z"/>
<path d="M317 514 c-20 -20 -6 -35 31 -32 47 4 52 32 7 36 -17 2 -34 0 -38 -4z"/>
<path d="M777 514 c-4 -4 -7 -14 -7 -21 0 -11 13 -13 53 -11 38 2 52 7 52 18
0 11 -13 16 -45 18 -25 2 -49 0 -53 -4z"/>
<path d="M1700 455 c-17 -21 -1 -38 31 -33 16 2 24 10 24 23 0 25 -37 32 -55
10z"/>
<path d="M1837 463 c-4 -3 -7 -15 -7 -25 0 -24 58 -26 67 -2 9 24 -41 47 -60
27z"/>
<path d="M1581 446 c-10 -12 -8 -17 9 -26 26 -14 46 0 37 24 -8 20 -31 21 -46
2z"/>
<path d="M565 440 c-8 -13 20 -24 41 -16 20 8 9 26 -16 26 -10 0 -22 -5 -25
-10z"/>
<path d="M360 425 c-17 -21 -1 -38 31 -33 16 2 24 10 24 23 0 25 -37 32 -55
10z"/>
<path d="M470 415 c-16 -19 -4 -35 25 -35 13 0 27 5 30 10 8 13 -13 40 -30 40
-7 0 -18 -7 -25 -15z"/>
<path d="M743 414 c-8 -21 16 -36 47 -28 32 7 34 10 27 29 -8 21 -66 20 -74
-1z"/>
<path d="M882 418 c-17 -17 4 -38 37 -38 32 0 52 17 44 36 -6 17 -64 19 -81 2z"/>
<path d="M1334 399 c-9 -15 23 -40 42 -32 8 3 14 13 12 22 -4 19 -43 27 -54
10z"/>
<path d="M1454 395 c-8 -20 4 -35 26 -35 25 0 35 17 20 35 -16 19 -39 19 -46
0z"/>
<path d="M573 344 c-8 -20 14 -35 47 -32 17 2 26 10 28 26 3 19 -1 22 -33 22
-23 0 -38 -5 -42 -16z"/>
<path d="M773 294 c-6 -15 11 -34 32 -34 21 0 38 19 32 34 -8 21 -56 21 -64 0z"/>
</g>
</svg>
