<?xml version="1.0" standalone="no"?>
<!DOCTYPE svg PUBLIC "-//W3C//DTD SVG 20010904//EN"
 "http://www.w3.org/TR/2001/REC-SVG-20010904/DTD/svg10.dtd">
<svg version="1.0" xmlns="http://www.w3.org/2000/svg"
 width="300.000000pt" height="300.000000pt" viewBox="0 0 300.000000 300.000000"
 preserveAspectRatio="xMidYMid meet">
<metadata>
Created by potrace 1.10, written by Peter Selinger 2001-2011
</metadata>
<g transform="translate(0.000000,300.000000) scale(0.100000,-0.100000)"
fill="#000000" stroke="none">
<path d="M1730 2747 c0 -8 11 -24 24 -36 30 -28 45 -11 22 24 -18 27 -46 34
-46 12z"/>
<path d="M2028 2740 c-110 -28 -210 -107 -251 -199 -23 -51 -28 -172 -8 -209
9 -17 6 -29 -20 -70 -17 -28 -29 -58 -27 -69 4 -24 52 -28 106 -10 37 13 44
13 69 -3 65 -39 130 -52 241 -48 132 5 196 31 276 110 120 121 112 296 -19
417 -71 65 -123 84 -235 87 -52 2 -112 -1 -132 -6z m267 -54 c108 -53 169
-144 168 -251 0 -76 -25 -127 -92 -187 -73 -66 -161 -92 -282 -86 -75 5 -100
11 -156 38 l-66 33 -48 -18 c-27 -9 -53 -15 -59 -13 -6 2 3 23 20 47 32 44 32
44 20 102 -15 68 -9 154 13 195 77 147 322 218 482 140z"/>
<path d="M2224 2565 c-4 -9 -2 -21 4 -27 16 -16 47 -5 47 17 0 26 -42 34 -51
10z"/>
<path d="M1964 2555 c-7 -18 3 -245 11 -253 2 -2 11 -2 20 1 11 5 15 21 15 57
l0 50 45 0 45 0 0 -42 c0 -24 5 -50 10 -58 8 -13 11 -13 23 0 21 22 9 255 -13
255 -11 0 -16 -14 -18 -57 l-3 -58 -49 0 -49 0 -3 57 c-3 56 -21 82 -34 48z"/>
<path d="M2235 2487 c-3 -7 -5 -52 -3 -98 2 -67 6 -84 18 -84 12 0 15 17 15
94 0 67 -4 96 -12 98 -7 3 -15 -2 -18 -10z"/>
<path d="M1660 2697 c0 -7 14 -26 30 -42 23 -22 33 -26 42 -17 9 9 5 19 -17
42 -30 31 -55 39 -55 17z"/>
<path d="M2607 2616 c-39 -24 -41 -28 -35 -47 5 -16 108 38 108 56 0 22 -29
18 -73 -9z"/>
<path d="M1585 2590 c-11 -17 5 -32 21 -19 7 6 11 15 8 20 -7 12 -21 11 -29
-1z"/>
<path d="M1330 2442 c-19 -9 -47 -36 -62 -58 -25 -38 -35 -44 -105 -62 -133
-35 -159 -37 -189 -13 -36 28 -77 27 -110 -4 -30 -28 -35 -30 -51 -14 -6 6
-27 11 -46 12 -28 1 -45 -7 -80 -41 -40 -36 -50 -40 -81 -35 -30 5 -40 1 -66
-25 -33 -33 -37 -54 -17 -93 14 -26 6 -69 -13 -69 -5 0 -19 -9 -30 -20 -30
-30 -27 -94 5 -126 28 -28 32 -52 10 -61 -22 -8 -45 -56 -45 -93 0 -22 9 -41
30 -62 17 -16 30 -36 30 -43 0 -7 -13 -27 -30 -43 -42 -43 -42 -101 0 -144 16
-16 30 -34 30 -40 0 -5 -14 -23 -31 -39 -28 -26 -31 -34 -26 -72 4 -31 14 -49
38 -70 l33 -27 -34 -28 c-43 -37 -47 -87 -9 -128 13 -14 23 -35 21 -47 -6 -50
-13 -67 -26 -67 -27 0 -58 -52 -51 -85 13 -65 12 -68 -22 -76 -48 -10 -62 -25
-65 -76 -3 -45 -5 -47 -43 -57 -56 -16 -87 -85 -51 -115 24 -20 127 -43 141
-31 7 6 20 8 29 4 9 -3 23 -1 31 6 13 11 20 10 40 0 22 -12 27 -11 45 5 11 10
20 24 20 31 0 6 16 21 34 32 l35 21 6 -47 c4 -26 13 -74 20 -107 12 -53 12
-60 -3 -72 -16 -11 -15 -12 3 -13 15 0 17 -2 6 -9 -9 -6 -10 -11 -2 -15 6 -4
14 -1 17 7 5 13 9 13 36 0 21 -11 44 -13 79 -9 35 5 49 3 49 -5 0 -8 6 -7 18
3 9 8 29 18 45 22 15 3 27 13 27 21 0 11 -5 12 -26 5 -42 -16 -67 -13 -59 8 4
9 13 78 21 152 8 74 18 144 23 156 10 22 78 41 93 26 4 -4 12 -75 17 -158 6
-83 13 -158 16 -167 4 -8 2 -18 -4 -22 -19 -11 -12 -27 9 -20 21 7 29 -10 8
-18 -7 -2 -10 -8 -6 -12 4 -4 14 -2 23 5 12 10 18 10 29 1 11 -10 20 -10 36
-1 12 6 29 9 37 6 20 -8 73 15 73 31 0 8 -13 13 -31 13 -26 0 -30 3 -24 18 12
27 33 242 40 397 4 77 2 232 -3 345 l-10 204 82 81 c77 76 178 201 205 253 6
12 20 22 31 22 31 0 50 11 50 30 0 11 -4 22 -10 25 -5 3 -7 19 -3 35 5 27 3
30 -20 30 -20 0 -24 4 -20 20 6 24 -18 36 -45 21 -16 -9 -21 -7 -25 9 -7 28
-34 25 -55 -7 -11 -18 -26 -28 -41 -28 -33 0 -50 -29 -33 -56 12 -18 8 -25
-40 -70 -29 -28 -70 -64 -90 -81 l-38 -30 0 47 c0 25 -5 77 -11 115 -14 82 -6
134 26 165 14 15 67 37 141 60 173 54 237 85 268 131 30 45 31 52 10 82 -12
18 -19 20 -35 11 -12 -6 -23 -9 -25 -6 -6 5 16 55 40 89 33 49 1 129 -64 163
-39 20 -107 19 -150 -3z m163 -52 c33 -37 36 -84 7 -100 -84 -45 -713 -220
-791 -220 -35 0 -38 -16 -5 -31 18 -9 36 -7 76 4 l53 16 28 -30 c42 -45 59
-38 105 46 16 30 40 30 75 1 17 -14 37 -26 44 -26 15 0 51 42 60 71 10 30 52
35 79 10 40 -38 86 -20 101 41 9 36 57 54 79 29 21 -23 20 -31 -4 -31 -24 0
-70 -21 -70 -32 0 -10 -1 -10 51 6 24 8 70 17 102 19 64 6 71 -2 36 -47 -28
-36 -73 -57 -214 -101 -181 -57 -208 -75 -220 -148 -7 -41 7 -186 30 -322 59
-331 67 -695 25 -1060 -15 -124 -15 -125 -56 -125 -46 0 -50 13 -58 180 -4 74
-10 145 -13 157 -4 16 -1 23 10 23 8 0 18 -6 20 -12 3 -7 6 -8 6 -3 1 22 -16
33 -59 35 -78 4 -98 1 -125 -22 -24 -22 -26 -33 -40 -178 -9 -85 -18 -161 -20
-167 -6 -17 -89 -17 -103 0 -15 19 -29 79 -52 232 -20 138 -30 169 -50 149 -6
-6 -4 -30 4 -67 l14 -59 -55 -34 c-76 -49 -124 -64 -207 -64 -95 0 -107 9 -57
44 107 75 202 233 224 378 7 45 16 78 20 71 9 -14 9 -49 1 -90 -6 -31 -4 -33
20 -33 19 0 26 -5 26 -20 0 -30 35 -44 56 -23 13 13 19 14 22 5 2 -6 10 -12
18 -12 14 0 18 12 14 39 -1 9 4 12 14 8 41 -16 66 41 29 62 -16 9 -18 28 -18
187 0 119 -4 178 -11 181 -7 2 -13 -55 -17 -184 -5 -157 -3 -189 9 -196 25
-14 15 -29 -17 -25 -22 4 -34 0 -42 -14 -16 -25 -27 -23 -27 7 0 27 -18 33
-38 13 -7 -7 -12 -8 -12 -2 0 5 5 15 11 21 8 8 6 27 -9 70 -18 52 -21 93 -26
423 -6 428 2 594 33 661 22 46 91 123 91 101 0 -20 16 -13 28 12 6 14 23 33
37 42 24 16 29 16 60 1 21 -10 37 -12 40 -7 3 6 50 10 104 10 103 0 186 11
263 36 35 11 58 28 85 61 46 55 84 75 138 69 29 -3 48 -14 68 -36z m-548 -100
c4 -7 -3 -8 -22 -4 -38 9 -42 14 -10 14 14 0 29 -5 32 -10z m535 -61 c-12 -21
-40 -23 -47 -2 -4 10 14 19 45 22 10 1 10 -4 2 -20z m-894 -60 c-14 -17 -26
-35 -26 -40 0 -6 -4 -7 -10 -4 -25 16 11 75 46 75 12 0 10 -7 -10 -31z m703
-1 c-16 -30 -14 -29 -33 -22 -9 3 -16 12 -16 19 0 12 10 16 53 24 4 0 2 -9 -4
-21z m-193 -66 c-15 -15 -17 -15 -33 0 -17 18 -17 18 27 31 22 6 25 -12 6 -31z
m-166 -30 c0 -20 -23 -31 -43 -20 -16 8 -17 12 -6 19 18 11 49 12 49 1z m-415
-160 c-9 -9 -25 20 -25 46 0 13 6 33 13 45 11 20 12 17 15 -32 2 -29 0 -56 -3
-59z m895 -97 c0 -27 24 -35 34 -10 3 8 10 15 15 15 7 0 7 -9 1 -24 -11 -30
-3 -38 24 -25 19 9 19 9 4 -4 -25 -19 -22 -27 7 -27 14 0 25 -4 25 -10 0 -10
-13 -14 -41 -11 -10 1 -27 -16 -42 -41 -54 -92 -266 -332 -268 -303 0 6 -6 48
-13 95 l-14 85 37 30 c68 56 171 158 171 171 0 6 -7 15 -16 18 -8 3 -12 11 -9
17 5 8 10 8 18 0 6 -6 19 -11 29 -11 13 0 18 8 18 30 0 17 5 30 10 30 6 0 10
-11 10 -25z m-899 -72 c-3 -52 -4 -56 -17 -38 -17 22 -18 49 -4 76 18 33 25
21 21 -38z m-1 -225 c-1 -58 -2 -61 -15 -44 -17 23 -19 59 -5 87 17 30 20 23
20 -43z m10 -214 c0 -40 -3 -55 -12 -52 -22 8 -33 54 -20 83 19 41 32 29 32
-31z m0 -199 c0 -47 -12 -58 -30 -26 -7 13 -7 28 0 45 15 40 30 31 30 -19z
m-42 -235 c-5 -17 -14 -33 -19 -36 -14 -8 -11 40 3 54 21 21 27 13 16 -18z
m-68 -138 c0 -5 -9 -17 -20 -27 -19 -18 -20 -17 -20 3 0 18 11 29 33 31 4 1 7
-3 7 -7z"/>
<path d="M1427 2377 c-6 -17 11 -37 31 -37 19 0 11 44 -9 48 -9 2 -19 -3 -22
-11z"/>
<path d="M1341 2366 c-15 -18 -3 -46 20 -46 22 0 26 32 5 49 -10 8 -16 8 -25
-3z"/>
<path d="M746 2214 c-8 -22 12 -56 32 -52 21 4 28 34 12 53 -16 20 -36 19 -44
-1z"/>
<path d="M614 2079 c-10 -17 13 -36 27 -22 12 12 4 33 -11 33 -5 0 -12 -5 -16
-11z"/>
<path d="M616 1763 c-12 -13 -6 -53 9 -53 9 0 15 9 15 24 0 26 -12 40 -24 29z"/>
<path d="M893 1733 c-36 -7 -71 -51 -82 -104 -14 -64 -14 -446 0 -580 15 -152
54 -222 131 -237 92 -19 158 27 178 124 12 57 8 355 -6 442 -7 45 -30 54 -27
11 2 -33 15 -244 16 -261 0 -7 -1 -45 -1 -84 l-2 -72 -105 -7 c-85 -6 -105
-10 -105 -22 0 -14 13 -15 91 -10 51 4 99 13 107 19 13 11 15 10 9 -5 -4 -10
-7 -23 -7 -27 0 -5 -14 -25 -31 -45 -26 -29 -38 -35 -71 -35 -97 0 -131 55
-148 240 -16 163 -9 545 10 582 15 33 33 39 120 47 l65 6 22 -50 22 -50 1 38
c0 58 -36 87 -109 86 -31 -1 -66 -4 -78 -6z"/>
<path d="M656 1691 c-4 -5 -3 -16 0 -25 5 -13 9 -14 20 -5 8 6 14 18 14 25 0
16 -26 19 -34 5z"/>
<path d="M888 1583 c-17 -3 -28 -11 -28 -20 0 -13 9 -15 61 -9 34 3 77 6 95 6
24 0 34 5 34 15 0 12 -14 15 -67 14 -38 -1 -80 -4 -95 -6z"/>
<path d="M1078 1564 c-10 -10 -9 -63 2 -89 7 -19 8 -19 15 -2 9 22 -7 102 -17
91z"/>
<path d="M923 1428 c-55 -7 -73 -14 -73 -25 0 -13 12 -14 85 -8 100 8 137 17
143 33 4 14 -47 14 -155 0z"/>
<path d="M995 1283 c-16 -1 -54 -6 -82 -9 -39 -4 -53 -10 -53 -21 0 -13 14
-14 103 -8 102 7 125 14 113 34 -7 11 -21 12 -81 4z"/>
<path d="M1025 1123 c-16 -1 -58 -6 -92 -9 -48 -4 -63 -9 -63 -21 0 -14 13
-15 103 -9 56 4 106 11 111 16 10 10 -1 31 -17 29 -7 -1 -25 -4 -42 -6z"/>
<path d="M525 670 c-8 -13 12 -40 31 -40 20 0 17 14 -5 34 -13 12 -21 14 -26
6z"/>
<path d="M466 632 c-8 -13 23 -52 40 -52 19 0 17 10 -5 38 -21 24 -27 26 -35
14z"/>
<path d="M2596 2401 c-13 -20 5 -31 50 -31 32 0 44 4 44 15 0 8 -6 15 -14 15
-7 0 -27 3 -44 6 -17 4 -32 1 -36 -5z"/>
<path d="M2464 2166 c-7 -17 45 -86 64 -86 22 0 13 34 -19 68 -34 36 -37 38
-45 18z"/>
<path d="M2320 2066 c0 -23 30 -86 40 -86 19 0 21 27 6 64 -15 35 -46 50 -46
22z"/>
<path d="M2153 2048 c-16 -20 -1 -113 17 -113 12 0 14 11 12 55 -4 60 -13 78
-29 58z"/>
<path d="M576 363 c-4 -5 -12 -9 -17 -9 -5 -1 -13 -2 -19 -3 -5 0 -10 -8 -10
-16 0 -12 4 -13 18 -6 31 17 57 40 46 41 -6 0 -14 -3 -18 -7z"/>
<path d="M943 358 c-4 -7 -21 -20 -38 -28 -33 -17 -46 -50 -21 -50 9 0 16 7
16 15 0 8 7 15 15 15 7 0 18 6 22 13 4 8 16 16 26 20 9 3 17 11 17 17 0 14
-27 13 -37 -2z"/>
<path d="M1229 368 c-6 -23 -7 -48 -1 -48 16 1 44 29 37 39 -5 9 -34 16 -36 9z"/>
<path d="M1286 345 c-14 -22 -15 -25 -1 -25 8 0 15 5 15 10 0 6 6 10 14 10 8
0 16 7 20 15 9 26 -30 17 -48 -10z"/>
<path d="M1367 353 c-14 -13 -6 -25 12 -20 13 3 18 0 15 -8 -7 -16 12 -29 21
-15 4 6 -1 20 -11 31 -18 20 -27 23 -37 12z"/>
<path d="M1514 349 c-10 -17 13 -36 27 -22 12 12 4 33 -11 33 -5 0 -12 -5 -16
-11z"/>
<path d="M1574 349 c-10 -17 13 -36 27 -22 12 12 4 33 -11 33 -5 0 -12 -5 -16
-11z"/>
<path d="M405 340 c-11 -18 5 -31 26 -20 11 6 17 15 14 21 -8 12 -32 12 -40
-1z"/>
<path d="M476 335 c-6 -17 9 -29 24 -20 14 9 12 22 -4 28 -8 3 -17 -1 -20 -8z"/>
<path d="M591 341 c-9 -6 -10 -11 -2 -15 13 -8 31 1 31 15 0 11 -11 11 -29 0z"/>
<path d="M1450 336 c0 -10 9 -16 21 -16 24 0 21 23 -4 28 -10 2 -17 -3 -17
-12z"/>
<path d="M317 334 c-14 -14 -7 -25 13 -22 12 2 21 8 21 13 0 12 -24 18 -34 9z"/>
<path d="M967 333 c-12 -11 -8 -23 8 -23 8 0 15 7 15 15 0 16 -12 20 -23 8z"/>
<path d="M1327 323 c-12 -11 -8 -23 8 -23 8 0 15 7 15 15 0 16 -12 20 -23 8z"/>
<path d="M546 313 c-11 -11 -6 -23 8 -23 8 0 17 4 20 9 7 10 -19 23 -28 14z"/>
<path d="M615 309 c-10 -15 1 -23 20 -15 9 3 13 10 10 16 -8 13 -22 13 -30 -1z"/>
<path d="M777 304 c-8 -8 1 -24 14 -24 5 0 9 7 9 15 0 15 -12 20 -23 9z"/>
<path d="M1200 294 c0 -17 22 -14 28 4 2 7 -3 12 -12 12 -9 0 -16 -7 -16 -16z"/>
<path d="M1266 303 c-11 -11 -6 -23 9 -23 8 0 15 4 15 9 0 13 -16 22 -24 14z"/>
<path d="M1639 293 c-14 -16 0 -21 49 -15 27 3 42 9 42 18 0 18 -76 15 -91 -3z"/>
<path d="M1770 302 c0 -14 11 -21 26 -15 21 8 17 23 -6 23 -11 0 -20 -4 -20
-8z"/>
<path d="M925 291 c-3 -5 -1 -12 5 -16 12 -7 30 2 30 16 0 12 -27 12 -35 0z"/>
<path d="M1025 291 c-10 -17 12 -21 25 -6 10 12 10 15 -3 15 -9 0 -18 -4 -22
-9z"/>
<path d="M1080 285 c0 -9 5 -15 11 -13 6 2 11 8 11 13 0 5 -5 11 -11 13 -6 2
-11 -4 -11 -13z"/>
<path d="M1132 288 c5 -15 28 -18 29 -3 0 6 -7 12 -17 13 -10 3 -15 -1 -12
-10z"/>
<path d="M820 280 c0 -5 7 -10 15 -10 8 0 15 5 15 10 0 6 -7 10 -15 10 -8 0
-15 -4 -15 -10z"/>
</g>
</svg>
