<?xml version="1.0" standalone="no"?>
<!DOCTYPE svg PUBLIC "-//W3C//DTD SVG 20010904//EN"
 "http://www.w3.org/TR/2001/REC-SVG-20010904/DTD/svg10.dtd">
<svg version="1.0" xmlns="http://www.w3.org/2000/svg"
 width="300.000000pt" height="300.000000pt" viewBox="0 0 300.000000 300.000000"
 preserveAspectRatio="xMidYMid meet">
<metadata>
Created by potrace 1.10, written by Peter Selinger 2001-2011
</metadata>
<g transform="translate(0.000000,300.000000) scale(0.100000,-0.100000)"
fill="#000000" stroke="none">
<path d="M2090 2759 c-117 -14 -194 -46 -247 -101 -33 -35 -63 -94 -63 -126 0
-11 -13 -36 -30 -57 -47 -59 -42 -71 37 -82 34 -4 56 -14 75 -34 90 -93 269
-128 430 -84 198 53 282 252 161 385 -19 22 -49 48 -66 59 -60 36 -190 53
-297 40z m197 -40 c70 -14 143 -63 167 -114 77 -162 -71 -315 -305 -315 -128
0 -211 34 -277 112 -19 23 -32 28 -68 28 -24 0 -44 2 -44 5 0 2 11 15 24 28
14 14 26 41 30 68 9 60 37 103 87 134 106 67 228 84 386 54z"/>
<path d="M2254 2627 c-3 -8 -4 -47 -2 -88 3 -66 5 -74 23 -74 18 0 20 8 23 67
3 66 -8 108 -29 108 -5 0 -12 -6 -15 -13z"/>
<path d="M1995 2620 c-8 -13 5 -225 15 -241 5 -6 15 -9 24 -6 12 5 16 20 16
57 l0 50 34 0 c36 0 46 -15 46 -71 0 -31 23 -44 41 -23 8 10 10 43 5 121 -4
58 -9 110 -12 114 -3 5 -14 9 -24 9 -16 0 -19 -9 -22 -52 l-3 -53 -35 0 c-34
0 -35 1 -38 45 -4 51 -30 78 -47 50z"/>
<path d="M1869 2593 c-5 -14 -7 -34 -4 -42 5 -13 9 -11 20 9 17 30 19 60 5 60
-6 0 -15 -12 -21 -27z"/>
<path d="M2270 2415 c-16 -19 -5 -47 17 -43 11 2 18 12 18 27 0 29 -17 37 -35
16z"/>
<path d="M1427 2729 c-53 -13 -91 -34 -119 -67 -33 -39 -52 -49 -149 -72 -84
-20 -99 -19 -99 5 0 20 -40 45 -71 45 -33 0 -79 -35 -79 -61 0 -26 -17 -24
-43 6 -13 15 -37 28 -58 31 -46 8 -95 -31 -105 -83 -7 -37 -43 -77 -79 -89
-53 -17 -86 -89 -55 -120 15 -15 -2 -54 -39 -92 -36 -35 -39 -65 -12 -106 15
-23 18 -40 14 -85 -3 -31 -10 -58 -14 -61 -10 -7 -39 -125 -39 -159 0 -13 -22
-72 -49 -130 -54 -116 -98 -256 -108 -341 -3 -30 -11 -66 -18 -80 -15 -30 -8
-128 10 -150 7 -8 16 -29 19 -46 8 -36 61 -124 75 -124 5 0 12 -13 16 -29 3
-16 15 -39 26 -52 10 -12 19 -32 19 -44 0 -32 36 -144 80 -250 20 -49 43 -110
49 -134 8 -27 19 -45 31 -48 11 -3 24 -20 30 -39 9 -27 8 -37 -6 -58 -16 -26
-48 -35 -58 -17 -7 11 -75 -3 -90 -20 -8 -9 -5 -10 14 -6 14 3 39 8 55 11 l30
6 -27 -11 c-16 -6 -28 -15 -28 -19 0 -5 16 -2 35 6 19 7 42 14 52 14 13 -1
-49 -29 -64 -30 -2 0 -3 -4 -3 -9 0 -6 16 -3 36 5 20 8 43 13 52 11 12 -3 10
-5 -5 -6 -12 0 -25 -6 -29 -13 -5 -8 -2 -9 12 -4 10 4 33 10 49 13 23 4 27 2
15 -6 -13 -9 -13 -11 1 -11 8 0 24 6 34 14 14 10 25 11 41 4 18 -8 30 -6 61
13 21 13 60 32 88 41 34 12 41 16 20 14 -16 -2 -38 -7 -48 -11 -17 -7 -18 -3
-16 41 1 27 8 56 16 65 7 9 15 43 17 76 5 75 17 99 57 107 48 9 119 7 119 -4
0 -6 22 -22 49 -37 45 -26 50 -32 56 -73 4 -25 15 -52 25 -60 10 -8 21 -31 24
-50 9 -52 -15 -73 -117 -104 -47 -14 -89 -31 -92 -36 -9 -15 -2 -13 92 20 48
17 91 29 97 27 6 -2 -13 -12 -41 -21 -29 -10 -53 -22 -53 -27 0 -5 24 0 53 10
71 26 107 33 107 22 0 -15 30 -21 51 -10 15 7 24 7 34 -1 17 -14 69 10 85 40
6 11 17 20 25 20 7 0 17 5 21 11 4 8 0 9 -15 4 -11 -3 -21 -3 -21 1 0 14 24
89 31 98 4 4 38 1 76 -8 81 -18 234 -22 425 -11 138 7 194 3 183 -15 -4 -6
-40 -33 -81 -60 -41 -28 -74 -54 -74 -59 0 -26 33 -33 147 -28 135 6 303 27
303 38 0 11 -121 0 -182 -16 -27 -7 -48 -9 -48 -5 0 4 13 10 28 13 37 8 120
82 129 115 3 15 17 37 30 50 32 30 27 63 -13 82 -24 12 -29 19 -21 31 6 9 7
28 3 44 -7 27 -8 28 -62 22 l-54 -6 0 35 c0 47 -31 62 -85 40 -51 -22 -53 -21
-57 16 -4 46 -44 68 -90 49 -18 -7 -43 -15 -56 -18 -20 -5 -22 -2 -20 25 1 16
-4 37 -11 46 -17 20 -70 21 -97 2 -31 -22 -49 -5 -45 44 2 37 0 41 -30 54 -22
9 -42 11 -62 5 -39 -11 -48 -4 -40 31 8 40 -3 78 -25 84 -15 5 -21 26 -31 112
-11 90 -54 281 -75 334 -5 11 7 22 41 39 50 24 122 77 136 98 4 7 13 13 20 13
15 1 77 82 77 101 0 8 10 39 21 69 16 40 24 93 30 195 5 77 10 154 11 170 3
26 -1 30 -24 33 -19 2 -28 9 -28 21 0 29 -26 46 -46 30 -14 -11 -18 -10 -33
10 l-17 22 -18 -20 c-15 -17 -22 -19 -34 -9 -21 18 -42 -15 -42 -65 0 -38 -1
-38 -30 -32 -19 4 -36 2 -45 -5 -12 -10 -11 -17 7 -49 30 -52 19 -100 -33
-149 -52 -47 -57 -50 -104 -54 -38 -3 -40 -2 -63 47 -13 27 -37 67 -54 87 -25
32 -30 50 -35 111 l-6 73 99 33 c161 55 227 95 240 146 7 30 -3 65 -20 65 -8
0 -19 7 -26 15 -18 21 -41 19 -47 -5 -6 -23 -7 -24 -33 -8 -10 7 -23 9 -27 5
-4 -5 -1 -12 7 -17 8 -5 11 -12 7 -17 -5 -4 -11 -3 -15 3 -4 6 -17 16 -29 23
-19 9 -26 8 -42 -8 -10 -10 -21 -25 -23 -32 -4 -11 -10 -10 -27 6 -18 15 -26
17 -40 8 -11 -7 -23 -8 -32 -2 -19 12 -25 11 -41 -5 -12 -11 -19 -11 -44 -1
-18 9 -23 14 -12 14 10 1 20 12 24 26 7 29 16 31 51 8 25 -16 26 -16 44 6 11
13 19 29 19 37 0 20 10 17 36 -7 27 -25 50 -20 64 16 9 24 40 36 40 15 0 -17
38 -11 49 7 9 17 10 17 28 0 17 -15 21 -15 41 -1 12 8 22 21 22 27 0 7 9 20
20 29 48 42 29 127 -35 154 -38 15 -109 17 -168 3z m164 -46 c10 -10 21 -30
24 -45 10 -39 -20 -54 -170 -84 -71 -14 -136 -29 -144 -33 -42 -22 -238 -83
-311 -97 -67 -12 -91 -13 -135 -3 -61 14 -108 1 -126 -33 -18 -33 5 -44 37
-19 35 27 45 27 75 -5 58 -64 174 -86 309 -59 47 9 146 27 220 40 74 14 156
31 183 39 45 14 47 14 47 -4 0 -56 -220 -143 -530 -210 -86 -18 -121 -31 -114
-41 3 -5 17 -7 32 -5 15 2 47 7 72 10 l45 5 -40 -14 c-22 -7 -51 -14 -65 -14
-30 -1 -56 -16 -43 -24 11 -7 182 36 213 53 13 7 20 6 22 -2 4 -10 10 -10 32
0 15 7 25 8 22 3 -3 -5 -35 -21 -71 -37 -36 -16 -65 -32 -65 -36 0 -12 6 -10
75 24 36 17 67 29 69 27 2 -2 13 -47 23 -100 15 -70 17 -101 9 -120 -10 -24
-54 -86 -88 -123 -10 -11 -18 -30 -18 -42 0 -29 -61 -87 -149 -139 l-72 -43
-77 35 c-76 35 -143 78 -151 97 -2 6 -32 40 -67 77 -34 36 -72 85 -83 108 -21
40 -21 47 -11 167 12 139 21 197 46 292 19 71 67 134 105 137 20 2 23 7 21 30
-5 47 6 72 37 83 25 9 34 7 56 -9 14 -12 25 -31 25 -45 0 -26 17 -33 26 -10 4
10 34 16 107 21 56 4 144 18 195 30 89 21 97 26 143 74 41 43 55 51 86 52 21
1 49 5 63 9 36 12 91 4 111 -17z m-577 -89 c9 -8 13 -20 10 -26 -4 -7 -10 -4
-16 6 -12 21 -35 20 -47 -1 -5 -10 -13 -15 -17 -10 -9 9 25 47 42 47 7 0 20
-7 28 -16z m115 -236 c16 -25 -10 -24 -34 1 -16 19 -16 20 3 18 11 0 25 -9 31
-19z m-156 -2 c21 -16 22 -26 2 -26 -8 0 -15 7 -15 16 0 14 -3 14 -15 4 -14
-12 -22 0 -8 13 9 10 15 8 36 -7z m111 -27 c-8 -14 -34 -11 -34 4 0 8 3 17 7
20 9 9 34 -13 27 -24z m676 -159 c0 -20 5 -30 15 -30 8 0 15 4 15 8 0 5 7 17
15 28 14 17 14 16 9 -23 -7 -48 5 -56 38 -26 15 13 18 14 18 2 0 -8 -5 -20
-11 -26 -7 -7 -11 -52 -10 -120 1 -110 -23 -243 -46 -250 -11 -4 -123 83 -123
95 0 4 -14 23 -30 42 -17 19 -29 42 -26 50 30 110 30 108 16 137 -8 15 -16 31
-18 36 -2 4 7 3 21 -2 34 -13 47 3 48 59 1 42 1 43 11 18 13 -38 38 -36 38 2
0 17 5 30 10 30 6 0 10 -13 10 -30z m-405 -246 c8 -20 15 -47 15 -60 0 -32
-58 -187 -75 -200 -21 -16 -18 -34 5 -34 25 0 41 26 76 127 18 53 32 79 39 74
5 -5 32 -3 58 4 43 11 49 10 55 -4 14 -40 69 -111 129 -167 l64 -60 -53 -36
c-74 -49 -118 -71 -118 -58 0 6 8 13 18 17 28 10 123 75 118 81 -3 2 -35 -14
-71 -37 -36 -22 -68 -41 -71 -41 -13 0 12 23 61 56 30 20 55 40 55 45 0 5 -29
-11 -64 -35 l-65 -44 -10 29 c-5 16 -17 29 -25 29 -9 0 -16 -2 -16 -5 0 -3 18
-59 39 -124 22 -65 49 -167 61 -227 11 -60 23 -117 25 -127 5 -26 -4 -47 -22
-47 -15 0 -14 -9 4 -87 3 -13 1 -23 -5 -23 -11 0 -22 33 -22 67 0 12 -5 25
-11 29 -7 4 -10 -12 -7 -52 3 -67 -13 -87 -18 -23 -5 47 -13 64 -25 52 -4 -4
-4 -27 2 -51 9 -43 6 -62 -12 -62 -5 0 -9 23 -9 50 0 38 -4 50 -15 50 -11 0
-14 -7 -11 -22 3 -13 7 -35 10 -49 4 -17 0 -31 -9 -39 -13 -11 -15 -5 -15 39
0 31 -4 51 -11 51 -8 0 -10 -17 -7 -50 3 -27 2 -50 -2 -50 -4 0 -10 46 -13
103 -9 144 -71 443 -121 579 -8 24 -14 62 -13 85 1 31 -4 48 -20 65 l-22 23
36 45 c41 51 77 126 68 140 -3 6 -4 10 -1 10 3 0 13 -16 21 -36z m-739 -162
c44 -45 44 -46 24 -64 -12 -12 -20 -32 -20 -53 0 -54 -15 -49 -49 14 -50 95
-62 136 -54 198 l6 55 25 -52 c14 -29 44 -73 68 -98z m1011 87 l32 -50 -21
-30 -22 -29 -18 28 c-44 64 -51 83 -37 108 18 34 30 29 66 -27z m50 -118 c-21
-25 -27 -28 -37 -16 -9 11 -7 20 11 45 20 26 25 28 37 16 13 -13 12 -19 -11
-45z m113 -47 c0 -15 -39 -49 -47 -41 -3 4 2 16 12 27 10 11 15 23 11 27 -4 4
-16 -3 -26 -17 -10 -14 -22 -21 -26 -17 -4 4 0 15 9 25 26 29 20 38 -8 12 -35
-33 -56 -13 -25 23 l22 25 39 -26 c21 -15 38 -32 39 -38z m-1266 -3 c15 -32
39 -71 51 -87 21 -26 26 -28 46 -16 19 12 21 12 16 -3 -31 -79 -47 -447 -27
-614 5 -47 7 -87 5 -90 -11 -10 -25 16 -28 49 -2 27 -7 35 -22 36 -11 1 -41 2
-67 3 l-48 1 0 95 0 95 45 0 c33 0 45 4 45 15 0 11 -11 15 -41 15 l-41 0 7 78
c3 42 11 113 17 157 15 112 15 119 -2 122 -12 3 -18 -14 -28 -74 -6 -43 -12
-91 -12 -106 0 -15 -6 -29 -12 -31 -7 -2 -28 -8 -45 -14 -41 -13 -41 -9 -8
118 28 106 46 160 81 238 13 29 24 57 24 62 0 25 17 5 44 -49z m718 -47 l14
-60 -108 -12 c-111 -11 -136 -18 -121 -32 9 -10 164 5 206 20 30 10 36 2 51
-66 l7 -31 -63 -7 c-107 -12 -132 -15 -168 -23 -19 -4 -46 -7 -60 -7 -21 -1
-25 -6 -25 -31 0 -23 4 -30 20 -30 11 0 24 10 31 22 6 13 13 21 15 19 2 -2 58
2 123 10 66 8 124 13 131 11 9 -4 38 -98 32 -103 -2 -2 -74 -10 -252 -28 -77
-8 -209 -18 -293 -22 l-153 -7 4 52 c2 28 6 53 8 55 2 2 58 6 124 9 66 2 127
6 135 8 9 3 16 -5 18 -21 5 -33 17 -44 37 -36 12 4 14 10 7 19 -5 6 -13 46
-16 87 l-7 75 80 47 c110 66 191 134 192 161 0 21 1 21 9 2 4 -11 14 -47 22
-81z m-402 -66 c41 -17 44 -18 71 -18 11 0 17 -4 14 -10 -4 -6 -61 -10 -137
-10 l-130 0 7 33 c3 17 9 48 12 68 l5 37 62 -43 c33 -24 77 -49 96 -57z m72
-119 l3 -46 -120 -2 c-66 -1 -128 -4 -137 -7 -15 -4 -16 1 -11 48 3 29 7 55 9
57 2 2 55 4 118 5 64 1 119 6 123 10 9 9 11 1 15 -65z m-482 -184 c0 -25 -5
-37 -17 -42 -10 -3 -32 -17 -50 -30 -19 -14 -34 -19 -38 -13 -3 5 -1 10 4 10
6 0 11 12 11 28 0 21 -2 24 -10 12 -5 -8 -10 -10 -10 -4 0 22 68 70 103 73 4
1 7 -15 7 -34z m915 -39 l11 -52 -116 -17 c-63 -9 -149 -19 -190 -22 -41 -4
-86 -8 -100 -10 -34 -5 -293 -19 -302 -17 -5 1 -8 -5 -8 -13 0 -19 37 -19 295
0 231 18 275 23 359 40 33 7 63 11 66 8 7 -6 17 -123 10 -124 -3 -1 -18 -3
-35 -5 -16 -2 -70 -8 -120 -14 -170 -20 -403 -40 -474 -40 -35 0 -38 3 -56 50
-11 28 -23 50 -27 50 -11 0 -11 -2 12 -55 25 -59 25 -66 -2 -35 -14 16 -19 19
-15 8 4 -10 2 -18 -3 -18 -5 0 -9 15 -10 33 0 17 -3 79 -6 137 l-5 105 68 -1
c73 -1 309 11 383 20 25 3 88 10 139 16 52 6 97 13 100 15 9 9 16 -7 26 -59z
m-915 -45 c0 -6 -4 -12 -8 -15 -5 -3 -8 -44 -6 -91 1 -47 0 -85 -2 -85 -8 0
-64 124 -64 142 0 9 12 26 28 37 29 22 52 27 52 12z m1190 -163 c0 -16 -4 -28
-10 -28 -5 0 -10 19 -10 43 0 31 3 38 10 27 5 -8 10 -27 10 -42z m-248 -58
c-6 -10 -9 -26 -6 -34 7 -18 -29 -29 -161 -52 -107 -18 -451 -24 -477 -8 -7 5
-20 8 -28 6 -21 -3 -36 9 -44 36 -7 20 -4 22 31 23 172 3 589 40 648 57 38 12
54 -1 37 -28z m-847 -59 c5 -17 4 -22 -6 -19 -8 3 -15 18 -17 34 -4 33 11 24
23 -15z m40 -3 c4 -17 3 -28 -3 -28 -12 0 -22 24 -22 53 0 27 16 11 25 -25z
m1025 20 c0 -7 -5 -48 -12 -90 l-11 -78 -61 4 c-67 3 -126 28 -126 51 0 9 9
15 23 15 12 0 49 12 82 25 33 14 66 25 73 25 6 0 12 7 12 15 0 8 -7 15 -15 15
-8 0 -15 -4 -15 -10 0 -5 -8 -10 -18 -10 -10 0 -50 -11 -88 -23 -113 -39 -124
-40 -124 -18 0 14 11 21 44 30 25 6 58 11 74 11 31 0 121 27 137 41 13 13 25
11 25 -3z m153 -112 c72 -53 159 -96 265 -132 100 -33 126 -43 235 -94 23 -11
60 -37 81 -59 32 -33 40 -49 44 -89 4 -44 1 -52 -29 -87 -42 -48 -117 -82
-200 -91 -35 -4 -61 -4 -58 -1 3 4 33 25 67 47 69 44 105 98 86 127 -17 27
-35 27 -42 2 -6 -23 -6 -23 -13 6 -6 28 -7 29 -14 8 -9 -28 -25 -31 -18 -3 3
11 0 20 -6 20 -6 0 -11 -9 -11 -20 0 -11 -5 -20 -11 -20 -6 0 -8 9 -4 20 4 11
2 20 -4 20 -6 0 -11 -7 -11 -15 0 -8 -5 -15 -11 -15 -7 0 -9 9 -6 21 3 13 1
19 -6 16 -7 -2 -13 -13 -15 -25 -2 -12 -9 -22 -16 -22 -9 0 -12 9 -8 25 2 15
0 25 -7 25 -6 0 -11 -11 -11 -25 0 -15 -6 -25 -15 -25 -10 0 -14 9 -11 30 4
39 -10 39 -19 0 -4 -17 -13 -31 -21 -32 -8 0 -20 -1 -26 -2 -8 -1 -12 8 -10
22 2 12 -2 22 -7 22 -6 0 -11 -11 -11 -25 0 -21 -5 -25 -31 -25 -26 0 -29 3
-24 20 4 11 2 20 -4 20 -10 0 -15 -14 -12 -32 0 -5 -7 -8 -17 -8 -15 0 -18 6
-14 31 3 22 1 30 -7 25 -6 -4 -11 -18 -11 -32 0 -22 -4 -24 -41 -24 -35 0 -40
3 -34 18 15 36 17 52 6 52 -6 0 -11 -4 -11 -9 0 -5 -4 -21 -9 -35 -8 -18 -15
-23 -30 -19 -12 3 -21 10 -21 15 0 5 4 7 9 3 5 -3 12 4 15 15 3 11 9 29 12 40
11 39 -14 19 -30 -25 -10 -25 -22 -45 -27 -45 -13 0 -11 21 6 70 17 48 19 69
6 55 -5 -6 -16 -34 -26 -62 -9 -29 -21 -53 -26 -53 -12 0 -12 2 11 60 22 56
25 74 10 65 -5 -3 -17 -30 -26 -60 -10 -30 -23 -55 -30 -55 -10 0 -8 12 6 43
11 23 19 51 19 62 0 13 -7 7 -19 -20 -28 -61 -24 -30 11 70 16 50 37 135 46
190 9 55 17 106 19 113 3 9 17 0 42 -25 20 -21 54 -51 75 -67z m-453 18 c0
-13 -4 -24 -10 -24 -5 0 -10 14 -10 31 0 17 4 28 10 24 6 -3 10 -17 10 -31z
m500 21 c0 -8 -6 -15 -14 -15 -7 0 -19 7 -26 15 -11 13 -8 15 14 15 16 0 26
-5 26 -15z m-1215 -9 c22 0 54 2 70 4 26 4 30 2 33 -19 3 -19 0 -22 -13 -17
-37 14 -66 18 -82 11 -16 -6 -15 -8 5 -16 22 -8 22 -10 8 -38 -14 -26 -34 -41
-56 -41 -6 0 -40 103 -40 124 0 5 8 4 18 0 9 -4 35 -8 57 -8z m666 -28 c-8
-10 -240 -39 -252 -32 -5 3 -9 16 -9 29 0 18 4 23 15 19 8 -4 15 -13 15 -21 0
-9 8 -13 23 -11 14 2 21 9 21 21 -2 14 7 17 45 18 25 0 66 4 91 7 35 6 46 4
51 -8 4 -8 4 -18 0 -22z m-515 17 c4 -8 3 -23 0 -32 -6 -15 -8 -15 -16 -3 -13
20 -12 50 0 50 6 0 13 -7 16 -15z m54 -26 c0 -18 -4 -28 -10 -24 -5 3 -10 20
-10 36 0 18 4 28 10 24 6 -3 10 -20 10 -36z m178 -2 c4 -17 -3 -19 -70 -15
-64 3 -73 6 -76 23 -3 19 2 20 70 15 61 -4 73 -8 76 -23z m392 -6 c0 -6 15
-21 33 -35 36 -28 112 -41 151 -26 14 5 26 6 26 1 0 -16 -58 -212 -64 -219 -4
-4 -68 -9 -142 -10 -115 -3 -134 -2 -134 11 0 12 8 15 33 11 21 -4 39 0 52 11
19 15 18 15 -15 10 -72 -10 -83 -10 -87 3 -3 8 8 12 36 12 23 0 41 4 41 10 0
6 -18 7 -45 3 -28 -3 -45 -2 -45 4 0 6 27 13 60 17 33 4 60 11 60 15 0 13 -12
21 -23 14 -6 -4 -21 -8 -34 -9 -13 -2 -33 -6 -44 -9 -14 -5 -19 -3 -15 4 4 6
25 16 46 22 22 7 40 18 40 26 0 17 5 17 -70 -12 -90 -35 -119 -33 -168 13 -22
20 -44 49 -47 65 -7 25 -5 27 24 27 28 0 31 -3 31 -32 0 -38 13 -63 28 -54 6
4 7 20 2 43 -5 21 -8 38 -7 38 1 0 42 9 91 18 62 13 92 15 99 8 15 -15 21 -14
47 9 25 22 40 26 40 11z m-675 -21 c3 -5 21 -10 38 -10 18 0 39 -4 46 -9 9 -6
22 -6 33 0 11 6 50 7 93 3 72 -6 75 -8 75 -32 0 -16 14 -38 40 -63 22 -21 40
-41 40 -44 0 -13 -56 -3 -87 16 -19 12 -37 19 -40 15 -3 -3 2 -8 11 -12 9 -3
16 -10 16 -15 0 -5 -30 2 -67 16 -37 13 -69 22 -71 20 -10 -10 12 -23 55 -35
27 -7 52 -17 58 -22 9 -8 -14 -5 -97 12 -36 7 -48 5 -48 -11 0 -3 30 -10 68
-15 66 -8 67 -8 25 -14 -56 -8 -66 -20 -19 -20 31 0 37 -3 32 -16 -3 -9 -6
-22 -6 -30 0 -12 -21 -14 -122 -12 l-121 3 -43 94 -42 94 39 20 c29 14 42 28
46 48 6 29 35 40 48 19z m1265 -15 c0 -16 -9 -19 -34 -9 -25 9 -19 24 9 24 16
0 25 -6 25 -15z m-440 -294 c0 -11 -4 -23 -10 -26 -16 -10 -224 -13 -242 -4
-10 6 -18 16 -18 24 0 11 24 15 118 18 64 1 125 4 135 5 11 1 17 -5 17 -17z
m-620 -8 c-1 -32 -21 -38 -125 -38 -104 0 -124 6 -125 38 0 4 56 7 125 7 69 0
125 -3 125 -7z m565 -100 c-8 -45 -32 -93 -45 -93 -6 0 -10 6 -10 14 0 27 -22
29 -41 5 -10 -13 -19 -21 -20 -16 -1 4 -2 13 -3 20 -2 13 -19 14 -51 1 -19 -7
-19 -7 -2 13 14 16 17 30 12 57 l-7 36 87 0 87 0 -7 -37z m-599 -19 c-3 -27
-14 -53 -24 -60 -23 -18 -32 -17 -32 1 0 8 -6 15 -14 15 -8 0 -16 -7 -20 -15
-3 -8 -10 -15 -15 -15 -6 0 -8 7 -4 17 5 14 1 15 -27 10 -33 -7 -33 -7 -15 13
15 17 16 24 7 46 -7 13 -12 27 -12 29 0 3 37 5 81 5 l82 0 -7 -46z"/>
<path d="M1531 2676 c-9 -10 -8 -16 4 -26 19 -16 41 1 32 24 -8 20 -21 20 -36
2z"/>
<path d="M1372 2648 c-16 -19 1 -40 29 -36 16 2 24 10 24 23 0 24 -36 33 -53
13z"/>
<path d="M777 2553 c-12 -12 -7 -50 8 -63 21 -17 45 -5 45 23 0 35 -33 60 -53
40z"/>
<path d="M704 2251 c14 -27 43 -47 54 -37 7 8 -42 65 -56 65 -10 1 -9 -6 2
-28z"/>
<path d="M650 2259 c0 -34 56 -89 90 -89 20 0 9 20 -18 34 -15 8 -34 26 -42
40 -14 27 -30 35 -30 15z"/>
<path d="M612 2153 c5 -25 28 -28 28 -4 0 12 -6 21 -16 21 -9 0 -14 -7 -12
-17z"/>
<path d="M1130 2115 c-19 -8 -61 -21 -92 -30 -32 -9 -58 -21 -58 -26 0 -5 1
-9 3 -9 11 0 167 55 187 66 33 17 5 17 -40 -1z"/>
<path d="M1193 2078 c-18 -11 -33 -24 -33 -29 0 -9 67 27 76 42 8 14 -8 9 -43
-13z"/>
<path d="M640 2060 c0 -21 4 -30 13 -27 6 2 12 14 12 27 0 13 -6 25 -12 28 -9
2 -13 -7 -13 -28z"/>
<path d="M607 2073 c-11 -10 -8 -51 3 -58 6 -4 10 8 10 29 0 37 -2 41 -13 29z"/>
<path d="M664 1995 c-8 -20 3 -48 16 -40 13 8 13 55 0 55 -6 0 -13 -7 -16 -15z"/>
<path d="M840 1939 c-7 -11 -9 -28 -5 -37 6 -15 8 -15 21 2 16 23 19 56 4 56
-5 0 -14 -9 -20 -21z"/>
<path d="M1134 1946 c-9 -24 12 -44 28 -28 10 10 8 16 -5 29 -15 15 -17 15
-23 -1z"/>
<path d="M585 1930 c-7 -23 2 -43 16 -35 12 8 12 55 0 55 -5 0 -12 -9 -16 -20z"/>
<path d="M917 1933 c-10 -10 -8 -53 2 -53 10 0 21 24 21 46 0 15 -12 19 -23 7z"/>
<path d="M1060 1910 c0 -11 7 -20 15 -20 8 0 15 9 15 20 0 11 -7 20 -15 20 -8
0 -15 -9 -15 -20z"/>
<path d="M977 1913 c-13 -12 -7 -33 8 -33 8 0 15 9 15 20 0 20 -11 26 -23 13z"/>
<path d="M837 1798 c-8 -27 10 -50 22 -29 11 17 8 44 -6 48 -6 2 -13 -6 -16
-19z"/>
<path d="M1104 1809 c-10 -17 13 -36 27 -22 12 12 4 33 -11 33 -5 0 -12 -5
-16 -11z"/>
<path d="M1024 1796 c-6 -17 2 -36 17 -36 12 0 12 37 -1 45 -6 3 -13 -1 -16
-9z"/>
<path d="M956 1782 c-2 -4 -1 -14 4 -22 7 -11 12 -12 21 -3 6 6 8 16 5 22 -8
13 -23 14 -30 3z"/>
<path d="M894 1676 c-9 -24 12 -44 28 -28 9 10 8 16 -5 29 -15 15 -17 15 -23
-1z"/>
<path d="M974 1679 c-8 -14 11 -33 25 -25 11 7 4 36 -9 36 -5 0 -12 -5 -16
-11z"/>
<path d="M1714 2096 c-14 -11 -15 -15 -3 -35 25 -39 89 -41 89 -3 0 35 -56 59
-86 38z"/>
<path d="M1462 1658 c2 -12 11 -24 21 -26 24 -5 22 25 -4 38 -18 10 -20 9 -17
-12z"/>
<path d="M1352 1481 c-21 -13 -10 -46 16 -49 27 -4 40 22 22 43 -14 17 -20 18
-38 6z"/>
<path d="M1387 1374 c-15 -15 -7 -45 11 -42 9 2 17 12 17 22 0 20 -16 31 -28
20z"/>
<path d="M1398 1228 c-8 -21 2 -38 22 -38 19 0 34 25 24 41 -8 13 -41 11 -46
-3z"/>
<path d="M1421 1101 c-10 -17 -9 -22 4 -27 26 -10 42 13 23 32 -15 15 -17 15
-27 -5z"/>
<path d="M564 1489 c-10 -17 13 -36 27 -22 12 12 4 33 -11 33 -5 0 -12 -5 -16
-11z"/>
<path d="M536 1245 c-6 -17 17 -31 34 -20 8 5 8 11 -1 21 -15 18 -25 18 -33
-1z"/>
<path d="M547 1113 c-4 -3 -7 -12 -7 -20 0 -15 26 -18 34 -4 7 11 -18 33 -27
24z"/>
<path d="M970 1496 c-18 -22 -5 -48 22 -44 17 2 23 10 23 28 0 29 -26 38 -45
16z"/>
<path d="M1340 1084 c0 -21 4 -33 10 -29 6 3 10 19 10 36 0 16 -4 29 -10 29
-5 0 -10 -16 -10 -36z"/>
<path d="M690 1053 c0 -18 32 -83 42 -83 12 0 11 3 -17 51 -14 24 -25 39 -25
32z"/>
<path d="M730 1050 c0 -18 30 -70 40 -70 6 0 1 18 -10 40 -20 40 -30 49 -30
30z"/>
<path d="M1650 779 c0 -23 22 -49 40 -49 25 0 26 22 2 43 -21 19 -42 22 -42 6z"/>
<path d="M1774 708 c-8 -12 22 -38 42 -38 19 0 26 16 11 27 -22 17 -46 22 -53
11z"/>
<path d="M1910 631 c0 -28 58 -47 79 -26 15 15 14 18 -3 31 -30 21 -76 18 -76
-5z"/>
<path d="M1747 623 c-11 -11 14 -33 38 -33 29 0 38 10 24 27 -12 14 -51 18
-62 6z"/>
<path d="M2055 599 c-9 -14 -4 -18 33 -25 25 -5 32 -3 32 9 0 8 -10 17 -22 21
-31 8 -36 8 -43 -5z"/>
<path d="M1840 566 c0 -18 58 -32 72 -18 17 17 -1 32 -38 32 -23 0 -34 -5 -34
-14z"/>
<path d="M1506 692 c-11 -18 -18 -85 -9 -79 6 4 13 17 16 29 2 13 8 31 12 41
7 17 -9 25 -19 9z"/>
<path d="M1470 566 c-12 -34 -13 -46 -1 -46 11 0 26 59 17 67 -3 3 -10 -6 -16
-21z"/>
<path d="M2581 2696 c-13 -14 -20 -29 -16 -35 9 -16 19 -14 49 10 21 17 24 24
15 35 -16 19 -22 18 -48 -10z"/>
<path d="M2610 2571 c-11 -8 -12 -13 -4 -21 16 -16 69 -8 69 10 0 18 -43 25
-65 11z"/>
<path d="M398 2549 c-57 -43 -22 -97 42 -64 42 22 39 39 -5 31 -20 -4 -35 -3
-35 2 0 13 25 22 57 22 15 0 23 5 21 13 -7 20 -51 18 -80 -4z"/>
<path d="M2604 2468 c-9 -14 25 -40 46 -36 8 2 15 10 15 17 0 18 -52 34 -61
19z"/>
<path d="M2540 2340 c0 -14 42 -50 52 -44 14 9 9 33 -11 44 -25 13 -41 13 -41
0z"/>
<path d="M286 2129 c-35 -27 -37 -79 -3 -79 12 0 27 4 33 8 13 8 44 66 44 82
0 17 -46 11 -74 -11z m20 -37 c-23 -23 -33 -6 -10 19 12 13 20 16 22 9 3 -7
-3 -19 -12 -28z"/>
<path d="M1883 1533 c12 -62 26 -83 52 -83 32 0 41 22 25 61 -13 31 -37 49
-66 49 -13 0 -15 -6 -11 -27z m45 -15 c14 -14 16 -38 4 -38 -5 0 -14 11 -20
25 -12 26 -4 33 16 13z"/>
<path d="M975 286 c-99 -38 -115 -45 -115 -50 0 -10 168 48 183 63 16 16 0 13
-68 -13z"/>
<path d="M1135 301 c-11 -5 -23 -7 -27 -4 -8 4 -42 -7 -148 -46 -30 -12 -56
-21 -57 -21 -2 0 -3 -4 -3 -9 0 -5 28 2 63 15 34 14 92 32 130 40 37 9 67 20
67 25 0 5 -1 9 -2 8 -2 0 -12 -4 -23 -8z"/>
<path d="M1605 300 c-73 -6 -144 -25 -134 -35 3 -2 22 0 44 5 22 5 51 9 65 9
14 -1 2 -6 -27 -13 -28 -6 -55 -15 -60 -20 -5 -5 7 -6 27 -2 91 19 103 19 95
7 -6 -10 -3 -11 11 -3 11 5 52 15 92 22 40 8 76 18 79 23 4 6 -10 8 -38 3 -79
-12 -84 -13 -71 -9 13 5 17 24 5 21 -5 0 -44 -4 -88 -8z"/>
<path d="M1834 289 c-2 -4 -30 -13 -62 -19 -31 -7 -64 -16 -72 -22 -11 -7 -9
-8 10 -4 14 2 54 10 90 16 36 7 72 14 80 15 8 2 39 4 68 4 28 1 52 6 52 11 0
12 -158 11 -166 -1z"/>
<path d="M2390 293 c-14 -3 -29 -9 -35 -15 -7 -7 0 -9 24 -4 18 3 40 6 48 6 8
0 11 5 8 10 -3 6 -9 9 -13 9 -4 -1 -18 -4 -32 -6z"/>
<path d="M1080 261 c-52 -15 -104 -32 -115 -39 -31 -18 1 -15 64 7 31 11 82
27 114 35 31 9 57 19 57 21 0 9 -24 4 -120 -24z"/>
<path d="M404 269 c-10 -17 13 -36 27 -22 12 12 4 33 -11 33 -5 0 -12 -5 -16
-11z"/>
</g>
</svg>
