<?xml version="1.0" standalone="no"?>
<!DOCTYPE svg PUBLIC "-//W3C//DTD SVG 20010904//EN"
 "http://www.w3.org/TR/2001/REC-SVG-20010904/DTD/svg10.dtd">
<svg version="1.0" xmlns="http://www.w3.org/2000/svg"
 width="300.000000pt" height="300.000000pt" viewBox="0 0 300.000000 300.000000"
 preserveAspectRatio="xMidYMid meet">
<metadata>
Created by potrace 1.10, written by Peter Selinger 2001-2011
</metadata>
<g transform="translate(0.000000,300.000000) scale(0.100000,-0.100000)"
fill="#000000" stroke="none">
<path d="M1725 2643 c-54 -16 -112 -64 -121 -99 -6 -23 -73 -45 -180 -60 l-52
-6 -12 36 c-36 110 -173 145 -256 65 -19 -18 -34 -28 -34 -21 0 6 -18 16 -41
22 -49 13 -124 -7 -156 -43 -25 -27 -53 -81 -53 -102 0 -11 -10 -15 -40 -15
-62 0 -130 -36 -130 -69 0 -9 7 -29 15 -45 21 -40 19 -53 -11 -72 -28 -19 -54
-63 -54 -92 0 -20 34 -55 63 -65 16 -6 16 -9 3 -29 -8 -13 -18 -42 -22 -64 -5
-36 -3 -44 17 -58 13 -9 36 -16 51 -16 33 0 34 -3 7 -41 -14 -20 -19 -41 -17
-66 3 -33 7 -39 36 -48 31 -9 42 -28 22 -40 -14 -9 -50 -94 -50 -121 0 -21 34
-57 62 -66 7 -3 1 -18 -16 -41 -35 -46 -32 -77 11 -97 25 -11 34 -23 39 -50 4
-19 20 -64 36 -99 16 -35 27 -65 25 -67 -2 -2 -30 22 -63 53 -58 55 -59 56
-34 64 25 9 25 9 -2 5 -19 -2 -34 4 -49 20 l-22 23 27 12 c14 7 26 16 26 20 0
9 -28 1 -47 -13 -7 -6 -20 1 -37 19 -14 15 -26 31 -26 34 0 3 16 14 35 25 43
23 46 37 5 22 -26 -9 -33 -7 -50 13 -25 31 -25 32 5 45 21 10 26 9 39 -10 8
-11 15 -16 15 -10 1 6 -17 34 -39 62 l-41 51 39 20 c21 11 45 27 53 37 13 16
12 16 -8 6 -19 -11 -25 -8 -52 30 -30 41 -32 58 -7 58 8 0 20 7 27 16 12 15
11 16 -11 9 -14 -4 -57 -23 -97 -41 -40 -19 -75 -34 -78 -34 -5 0 -45 75 -45
85 0 3 8 5 18 5 10 0 24 6 31 13 11 10 14 9 19 -2 6 -19 43 -54 49 -47 3 2 -4
15 -16 27 -12 13 -21 27 -21 32 0 4 -11 23 -25 41 -31 41 -31 52 -2 60 35 9
47 7 47 -8 0 -8 5 -18 12 -22 8 -5 9 -2 5 9 -4 10 -9 23 -12 30 -3 7 12 19 40
30 25 11 45 23 45 28 0 13 -6 12 -50 -11 -22 -11 -41 -20 -43 -20 -6 0 -31 80
-26 84 2 3 16 7 31 11 23 6 29 2 43 -25 9 -18 19 -29 23 -26 3 4 -4 19 -16 35
l-21 29 21 14 c12 8 17 17 12 20 -8 6 -87 -24 -180 -67 -134 -63 -198 -85
-206 -73 -4 7 -8 16 -8 19 0 3 81 41 179 83 160 70 211 98 211 119 0 3 -43 36
-95 72 -52 37 -99 74 -104 83 -5 9 -32 30 -60 46 -41 24 -49 34 -45 51 3 13
-1 27 -10 34 -9 8 -16 20 -16 28 0 7 -6 16 -14 19 -8 3 -17 16 -20 29 -9 34
-36 47 -67 32 -30 -16 -37 -60 -12 -79 10 -7 19 -24 21 -38 1 -14 9 -31 17
-39 12 -12 19 -11 49 7 20 12 36 17 36 12 0 -5 -13 -17 -29 -26 -17 -10 -28
-20 -26 -23 1 -3 5 -86 6 -185 l4 -178 -37 -19 c-46 -24 -51 -31 -38 -64 10
-25 14 -27 54 -23 l43 5 37 -76 c53 -107 245 -408 297 -467 11 -11 19 -23 19
-25 0 -3 -27 -3 -60 -1 -72 5 -86 -4 -95 -63 -6 -44 -7 -45 -43 -45 -20 0 -52
-9 -69 -20 -31 -18 -33 -23 -33 -74 0 -46 -3 -56 -21 -61 -11 -4 -36 -20 -55
-37 -26 -23 -34 -38 -34 -63 0 -19 5 -37 10 -40 18 -11 11 -34 -25 -81 -43
-55 -45 -94 -10 -127 23 -20 24 -27 15 -51 -24 -64 -8 -120 38 -129 25 -5 30
-12 36 -46 8 -53 31 -75 70 -67 24 5 36 1 62 -25 27 -26 37 -30 61 -24 15 4
56 9 91 12 50 4 62 8 62 22 0 19 -37 56 -84 85 -25 16 -27 20 -13 28 29 16 19
47 -23 76 -38 26 -40 29 -34 67 13 95 112 196 230 236 55 18 92 23 182 24 108
1 115 0 155 -28 97 -65 167 -94 332 -137 111 -29 223 -67 260 -87 61 -34 146
-11 183 49 12 20 22 43 22 51 0 11 15 20 43 27 90 23 220 78 237 102 3 4 25 0
49 -8 81 -28 138 7 202 124 23 42 53 89 65 104 19 23 21 33 13 60 -8 29 -24
47 -41 48 -5 0 -8 7 -8 15 0 21 -24 29 -49 15 -15 -8 -27 -8 -41 0 -30 16 -88
-20 -129 -81 -39 -56 -63 -72 -181 -119 -47 -19 -91 -38 -98 -43 -8 -7 -19 -1
-35 19 -12 16 -21 32 -20 36 4 12 -15 10 -22 -2 -3 -5 -1 -10 6 -10 10 0 10
-3 1 -12 -9 -9 -15 -9 -24 0 -18 18 -56 14 -69 -6 -8 -12 -20 -17 -34 -14 -17
3 -29 -4 -46 -27 -12 -16 -27 -27 -33 -24 -23 14 -72 4 -257 -56 -26 -8 -27
-7 -32 43 -8 69 -31 173 -61 274 -24 82 -24 84 -5 103 22 22 25 77 5 85 -17 7
-59 -32 -51 -46 4 -6 13 -10 22 -10 9 0 13 -3 9 -7 -8 -8 -82 -14 -192 -16
-52 -1 -70 4 -110 28 -26 17 -64 52 -83 79 -36 50 -36 50 -37 160 -1 141 -18
233 -60 321 -43 92 -58 154 -51 220 11 103 85 221 132 209 18 -4 23 1 34 44
29 113 153 151 223 68 9 -12 17 -27 18 -33 0 -7 4 -13 9 -13 17 0 21 18 10 47
-9 25 -7 31 20 55 67 60 189 10 191 -78 0 -12 7 -25 16 -28 28 -11 106 -6 172
10 47 12 67 13 75 5 8 -8 19 6 42 51 26 55 36 65 75 80 61 23 122 22 171 -2
42 -22 79 -71 79 -105 -1 -34 -68 -70 -245 -129 -93 -31 -179 -60 -190 -65
-90 -39 -322 -84 -406 -79 -91 7 -184 51 -184 88 0 21 -4 25 -25 22 -14 -1
-30 -10 -37 -19 -13 -17 -8 -37 8 -27 5 3 27 -10 49 -30 21 -19 56 -40 77 -46
25 -8 45 -22 55 -41 26 -44 47 -48 77 -12 36 43 86 47 131 10 18 -15 38 -26
44 -24 6 2 20 20 31 40 15 29 29 40 60 48 22 6 50 15 62 20 18 7 28 3 48 -17
34 -34 56 -28 80 22 15 32 29 45 56 54 33 11 40 10 68 -11 38 -28 61 -19 75
29 6 23 18 34 53 47 42 16 45 16 64 -1 19 -17 19 -18 -8 -53 -36 -47 -63 -69
-137 -110 -80 -45 -341 -145 -431 -166 -5 -1 -27 -5 -48 -10 -44 -9 -59 -25
-23 -25 13 0 26 -6 28 -12 4 -12 72 -5 158 17 24 6 24 5 -7 -24 -33 -30 -42
-51 -24 -51 6 0 13 5 17 11 4 7 26 -8 58 -40 60 -59 105 -80 192 -88 62 -6 79
-15 49 -27 -46 -17 -353 -47 -470 -45 -132 2 -195 -10 -195 -38 0 -7 9 -37 21
-68 12 -31 18 -59 15 -63 -10 -9 -58 31 -76 63 -19 34 -40 44 -40 18 0 -20 25
-60 50 -81 27 -23 118 -62 132 -57 7 3 19 1 27 -4 12 -8 12 -12 2 -25 -8 -9
-20 -16 -27 -16 -8 0 -14 -4 -14 -10 0 -17 46 -11 63 8 26 28 22 60 -9 68 -22
6 -25 10 -19 33 4 14 7 26 8 27 4 3 147 34 202 45 82 15 237 56 310 81 161 55
323 154 420 256 58 62 39 56 -37 -10 -40 -35 -89 -74 -108 -87 -21 -14 -13 -4
20 25 30 27 89 81 131 121 l76 73 6 -122 c5 -104 4 -125 -10 -140 -10 -12 -14
-27 -10 -47 4 -17 3 -33 -2 -35 -11 -7 -5 -84 8 -100 5 -6 24 -86 41 -176 34
-186 35 -190 51 -190 12 0 10 21 -27 207 -28 143 -29 153 -10 153 19 0 26 25
31 102 5 76 0 94 -25 101 -15 4 -19 13 -18 38 1 19 0 75 0 126 -2 82 -4 92
-22 98 -11 3 -20 13 -20 21 0 8 -9 13 -22 11 -17 -1 -22 3 -20 16 2 9 -3 17
-11 17 -8 0 -20 7 -27 15 -7 8 -21 15 -32 15 -33 0 -135 -108 -217 -229 -112
-165 -105 -161 -229 -131 -54 13 -85 28 -119 57 -26 21 -50 41 -55 44 -4 3 4
28 19 56 24 45 33 52 81 68 93 29 268 122 314 168 93 92 130 239 77 311 -34
46 -67 70 -118 83 -57 15 -64 15 -126 -4z m-1475 -172 c0 -11 -40 -41 -54 -41
-5 0 1 11 14 25 24 26 40 32 40 16z m1710 -43 c0 -7 -5 -20 -10 -28 -7 -12
-12 -12 -21 -3 -9 9 -9 16 1 28 15 18 30 20 30 3z m-1562 -319 c1 -3 -9 -11
-22 -17 l-25 -11 -46 139 c-25 76 -45 144 -45 151 0 10 66 -115 138 -262z m35
159 c23 -16 64 -43 91 -61 l49 -31 -39 -17 c-36 -15 -40 -15 -48 0 -15 26
-126 125 -126 112 0 -7 25 -38 55 -70 30 -32 55 -60 55 -63 0 -4 -13 -11 -30
-17 -26 -8 -30 -8 -30 7 0 10 -11 34 -26 55 -14 21 -32 56 -40 80 -8 23 -24
57 -34 75 -11 18 -20 36 -20 39 0 2 23 -14 50 -37 28 -24 70 -56 93 -72z
m1331 70 c-9 -31 -11 -33 -29 -18 -20 16 -19 27 3 33 31 8 33 7 26 -15z
m-1445 -232 c6 -16 10 -30 9 -31 -10 -7 -72 -35 -74 -33 -1 2 -5 73 -8 158
l-6 155 34 -110 c19 -60 39 -123 45 -139z m1251 172 c0 -7 -4 -19 -9 -27 -8
-12 -12 -12 -25 -2 -21 17 -20 28 2 34 29 8 32 7 32 -5z m-250 -78 c-12 -22
-18 -24 -39 -11 -19 12 -4 31 25 31 22 0 23 -3 14 -20z m-200 -4 c0 -2 -3 -12
-6 -20 -5 -13 -9 -14 -20 -5 -20 16 -17 29 6 29 11 0 20 -2 20 -4z m997 -12
c4 -10 -18 -37 -68 -83 -41 -38 -89 -90 -108 -117 -27 -39 -12 -28 75 59 60
59 116 107 124 107 19 0 -86 -107 -175 -179 -38 -31 -92 -80 -119 -109 -27
-28 -53 -52 -59 -52 -5 0 6 17 26 39 19 21 60 77 91 124 54 84 179 227 198
227 5 0 11 -7 15 -16z m56 -75 c-21 -36 -104 -116 -206 -196 -40 -32 -78 -65
-85 -75 -31 -42 -205 -107 -412 -152 -170 -38 -210 -44 -210 -35 0 5 10 9 22
9 12 0 19 3 15 6 -3 4 -23 3 -44 -1 -31 -6 -34 -9 -18 -15 16 -5 13 -8 -15
-13 -31 -7 -49 2 -50 25 0 10 96 20 127 14 34 -8 242 34 368 73 156 49 166 56
405 288 58 57 109 103 113 103 5 0 0 -14 -10 -31z m-1663 -150 c0 -7 -46 -29
-60 -29 -6 0 -10 9 -10 21 0 11 -4 29 -10 39 -8 15 -5 20 18 28 24 8 29 6 44
-22 9 -17 17 -34 18 -37z m-87 -4 c17 -35 17 -36 -9 -45 -39 -15 -51 -12 -58
14 -3 13 -9 31 -12 39 -5 15 10 23 47 26 8 0 23 -15 32 -34z m-84 -31 c21 -36
21 -36 1 -41 -11 -3 -20 -9 -20 -14 0 -5 10 -7 23 -4 18 5 26 -1 42 -31 15
-28 17 -38 7 -42 -6 -2 -12 -8 -12 -14 0 -5 8 -7 18 -4 24 8 67 -65 49 -84
-10 -10 -7 -12 11 -7 12 3 22 0 22 -5 0 -6 12 -27 27 -46 17 -23 23 -37 15
-40 -7 -2 -12 -8 -12 -14 0 -5 8 -7 18 -4 12 4 22 -4 35 -26 22 -39 34 -30 13
10 -26 50 14 60 51 13 l22 -28 -39 -18 c-22 -10 -40 -22 -40 -28 0 -5 6 -7 14
-4 7 3 23 -7 35 -24 18 -25 19 -30 7 -35 -12 -5 -10 -13 12 -47 32 -50 120
-157 144 -175 10 -7 18 -20 18 -28 0 -8 4 -13 9 -11 17 4 90 -63 85 -78 -4 -8
-1 -15 6 -15 6 0 8 5 5 10 -10 17 11 11 28 -8 21 -23 7 -47 -22 -37 -22 7
-155 147 -214 225 -78 104 -313 453 -351 521 -74 136 -91 172 -61 133 15 -19
16 -19 14 1 -3 48 12 47 40 -1z m122 -51 c7 -16 15 -31 17 -34 3 -6 -59 -32
-63 -27 -2 2 -10 17 -18 34 -15 30 -15 32 6 42 34 16 43 14 58 -15z m1815 -72
c-10 -16 -36 -13 -43 5 -8 22 18 37 36 20 7 -8 10 -19 7 -25z m-9 -47 c5 -15
-28 -27 -40 -15 -5 5 -6 14 -2 21 8 13 37 9 42 -6z m-687 -14 c-104 -25 -209
-40 -280 -40 -43 0 -91 -5 -107 -11 -19 -7 -29 -7 -31 0 -3 9 -32 16 -32 8 0
-1 9 -28 20 -60 22 -63 26 -87 10 -71 -10 10 -62 137 -57 138 1 1 12 7 24 14
25 13 47 16 40 5 -6 -10 292 4 353 16 60 11 108 12 60 1z m-952 -40 l33 -39
-59 -30 -58 -29 -27 44 c-15 25 -27 46 -27 48 0 2 14 6 31 10 16 3 37 13 45
21 21 21 25 20 62 -25z m220 -281 c55 -67 169 -95 279 -67 57 14 62 9 87 -98
10 -44 21 -86 24 -94 3 -8 15 -60 26 -115 29 -137 35 -140 184 -95 60 18 117
30 126 27 15 -6 15 -9 1 -37 -9 -17 -15 -41 -13 -52 6 -42 25 -28 41 30 16 58
49 112 69 112 7 0 9 -17 6 -45 -4 -34 -2 -45 8 -45 17 0 37 47 31 71 -6 22 10
49 29 49 12 0 15 -9 12 -37 -4 -48 17 -54 33 -9 7 20 17 36 22 36 11 0 -2
-104 -19 -154 -8 -21 -14 -54 -14 -73 0 -51 -57 -107 -103 -100 -108 16 -476
191 -621 295 -73 52 -199 163 -167 147 17 -9 7 44 -19 95 -19 38 -70 196 -69
214 0 6 6 3 12 -8 7 -10 22 -31 35 -47z m-127 -219 c76 -95 125 -145 183 -187
l30 -23 -76 0 c-152 0 -265 -41 -356 -130 -124 -121 -118 -280 14 -373 l46
-32 -44 -3 c-62 -5 -151 25 -200 67 -26 22 -52 59 -71 101 -27 56 -31 76 -30
150 0 89 20 173 56 245 21 42 88 136 116 164 45 43 126 106 173 132 l53 29 15
-22 c8 -13 49 -65 91 -118z m1545 25 c-6 -39 -5 -44 9 -39 9 4 19 20 22 36 5
25 28 48 47 48 11 0 5 -35 -9 -54 -32 -43 -8 -49 30 -9 42 46 31 3 -27 -100
-62 -111 -105 -157 -144 -157 -16 0 -63 11 -104 24 -41 13 -101 27 -132 31
-32 4 -58 11 -58 15 0 7 45 30 60 30 5 0 38 14 72 31 35 16 74 31 88 32 18 2
27 11 34 37 11 36 84 120 105 120 10 0 12 -12 7 -45z m-1191 -278 c-26 -14
-67 11 -59 36 5 16 3 18 -12 9 -13 -7 -25 -5 -46 11 -24 18 -26 22 -11 32 13
10 27 4 81 -33 54 -38 61 -47 47 -55z m817 46 c10 -9 35 -19 56 -22 52 -9 41
-26 -17 -26 -68 0 -73 -11 -10 -20 30 -4 54 -3 58 2 13 20 50 33 72 25 20 -8
20 -9 -12 -21 -19 -8 -47 -19 -64 -26 -39 -17 -147 -55 -157 -55 -4 0 0 16 8
35 7 19 14 48 14 64 0 60 18 75 52 44z m-749 -62 c53 -27 17 -50 -38 -24 -31
15 -33 18 -17 29 9 7 19 12 22 11 3 -2 17 -9 33 -16z m121 -67 c42 -20 76 -38
76 -40 0 -7 -50 7 -100 26 -25 10 -54 21 -65 25 -16 5 -17 8 -5 15 8 6 16 10
16 10 1 0 36 -16 78 -36z"/>
<path d="M1005 1291 c-9 -16 14 -102 41 -151 33 -60 51 -80 108 -123 70 -55
76 -45 8 13 -34 27 -73 73 -90 102 -36 63 -65 144 -57 158 3 6 4 10 1 10 -3 0
-7 -4 -11 -9z"/>
<path d="M617 1248 c11 -13 30 -40 42 -60 21 -35 42 -55 25 -25 -22 40 -70
107 -78 107 -5 0 0 -10 11 -22z"/>
<path d="M523 1176 c16 -42 88 -153 113 -176 l28 -25 -19 30 c-10 16 -22 34
-27 40 -5 5 -24 39 -43 75 -18 35 -39 66 -46 69 -8 2 -10 -2 -6 -13z"/>
<path d="M691 1131 c-11 -7 -11 -10 1 -17 8 -5 20 -23 27 -41 12 -29 61 -85
61 -69 0 13 -29 62 -44 75 -9 8 -16 22 -16 32 0 22 -12 30 -29 20z"/>
<path d="M409 1063 c12 -22 126 -143 135 -143 13 0 -13 36 -53 73 -23 21 -48
49 -57 62 -19 29 -40 35 -25 8z"/>
<path d="M520 1050 c-14 -10 -21 -22 -17 -26 4 -4 17 2 29 14 28 28 20 36 -12
12z"/>
<path d="M327 942 c12 -9 33 -25 47 -35 25 -17 25 -18 6 -37 -10 -10 -22 -35
-26 -54 -7 -39 -10 -41 -47 -27 -13 5 -30 5 -38 1 -15 -10 -10 -13 42 -24 25
-5 26 -9 21 -51 -3 -30 -1 -45 7 -45 6 0 11 17 11 38 0 40 33 149 50 166 6 6
18 2 31 -10 21 -18 21 -18 -1 13 -25 35 -91 83 -112 83 -7 -1 -3 -8 9 -18z"/>
<path d="M323 639 c-35 -10 -54 -29 -29 -29 21 0 66 21 66 32 0 4 -1 8 -2 7
-2 0 -17 -5 -35 -10z"/>
<path d="M386 536 c-9 -14 -12 -27 -7 -30 8 -5 41 35 41 49 0 13 -19 3 -34
-19z"/>
<path d="M1822 2578 c3 -7 15 -15 27 -16 16 -3 22 1 19 10 -3 7 -15 15 -27 16
-16 3 -22 -1 -19 -10z"/>
<path d="M1695 2540 c-9 -29 0 -36 31 -21 29 13 28 35 -3 39 -15 2 -23 -4 -28
-18z"/>
<path d="M1210 2497 c0 -30 24 -62 38 -53 16 9 15 49 0 64 -19 19 -38 14 -38
-11z"/>
<path d="M992 2461 c-11 -7 -11 -15 2 -45 18 -42 46 -49 46 -10 0 27 -16 64
-28 64 -4 0 -13 -4 -20 -9z"/>
<path d="M2870 2418 c-12 -13 -27 -30 -35 -39 -8 -9 -15 -20 -15 -26 0 -5 -9
-18 -20 -28 -11 -10 -20 -26 -20 -35 0 -10 -17 -22 -47 -33 -27 -10 -129 -60
-228 -112 -117 -62 -183 -91 -189 -85 -6 6 -16 10 -23 10 -42 0 14 -41 239
-175 289 -172 298 -178 281 -196 -10 -10 -23 -6 -65 21 -29 18 -66 40 -83 50
-16 9 -113 67 -214 129 -101 61 -186 109 -189 106 -3 -3 3 -14 13 -25 16 -17
17 -25 7 -40 -19 -30 -14 -38 8 -12 16 19 23 21 40 12 18 -10 19 -14 8 -28 -7
-9 -19 -22 -27 -28 -8 -6 -11 -16 -7 -23 5 -8 17 0 35 23 27 33 29 34 50 19
l22 -15 -22 -24 c-16 -17 -29 -22 -43 -18 -18 6 -19 5 -7 -9 11 -14 10 -20 -8
-43 -30 -38 -26 -51 5 -15 29 35 32 36 57 17 18 -14 17 -15 -4 -40 -17 -20
-25 -23 -36 -14 -18 15 -29 2 -14 -16 10 -12 5 -23 -30 -61 -23 -25 -39 -49
-35 -53 4 -4 29 17 54 45 l47 53 24 -19 24 -18 -36 -39 c-33 -36 -38 -38 -57
-26 -30 19 -40 4 -12 -17 l23 -17 -25 -27 c-28 -31 -34 -52 -12 -44 8 3 23 -5
35 -17 l21 -22 -20 -22 c-27 -28 -25 -35 11 -51 37 -16 36 -47 -1 -44 -24 3
-24 2 -6 -12 18 -14 22 -12 47 18 29 34 31 32 -28 52 -28 9 -29 17 -4 39 15
14 23 15 45 5 29 -14 31 -20 14 -37 -20 -20 5 -13 31 9 13 11 21 22 17 26 -8
9 44 63 61 63 7 0 10 6 8 13 -8 20 53 87 73 80 13 -5 15 -3 5 7 -9 10 -8 18 4
36 8 13 21 24 29 24 7 0 11 6 8 13 -2 7 4 21 14 30 16 15 21 15 31 3 9 -11 -1
-30 -51 -97 -34 -46 -76 -100 -92 -119 -17 -20 -44 -51 -59 -70 -15 -19 -48
-56 -73 -82 -25 -26 -44 -53 -41 -60 8 -20 152 133 256 272 51 69 95 126 96
128 2 2 15 -4 29 -13 33 -22 68 -16 82 14 17 33 9 47 -43 78 l-45 26 7 54 c4
30 20 117 36 195 16 78 29 153 29 167 0 18 7 30 22 36 26 11 37 45 16 45 -20
0 -54 27 -46 35 4 4 20 -2 36 -14 39 -27 52 -27 52 3 0 15 7 26 20 29 28 7 28
72 1 87 -28 15 -39 13 -61 -12z m-20 -160 c0 -10 -16 -2 -42 20 -30 25 -20 34
12 10 17 -12 30 -26 30 -30z m-141 -100 c-115 -127 -152 -169 -171 -196 l-16
-23 -42 21 -41 21 83 59 c46 33 124 93 173 134 50 41 92 75 94 75 2 1 -34 -41
-80 -91z m31 78 c0 -2 -60 -48 -132 -101 -73 -54 -144 -108 -158 -121 l-25
-23 -38 23 -38 24 148 75 c81 41 168 87 193 101 47 27 50 28 50 22z m32 -58
c-16 -24 -59 -98 -97 -165 -37 -68 -70 -123 -74 -123 -3 0 -19 8 -34 19 l-28
18 87 99 c47 54 105 122 127 151 49 62 61 63 19 1z m27 -15 c-22 -89 -59 -290
-59 -320 0 -18 -3 -33 -6 -33 -3 0 -26 14 -51 30 -24 17 -48 30 -53 30 -6 0 8
29 29 64 22 35 63 109 91 165 29 55 54 101 55 101 2 0 -1 -17 -6 -37z m-348
-296 c15 -11 15 -15 -7 -40 -26 -31 -36 -33 -53 -13 -10 12 -8 20 10 40 26 29
28 30 50 13z m60 -37 c19 -11 19 -11 -3 -40 -25 -34 -27 -35 -53 -16 -18 13
-18 14 1 39 21 30 27 31 55 17z m79 -54 c-1 -6 -11 -24 -24 -39 -22 -28 -23
-28 -46 -9 l-24 19 25 30 c20 25 27 28 47 20 12 -6 22 -15 22 -21z m-139 -16
c24 -13 23 -19 -1 -49 -19 -22 -21 -23 -46 -6 l-26 17 23 24 c26 28 24 27 50
14z m209 -28 c0 -3 -7 -13 -16 -23 -13 -14 -21 -15 -44 -7 l-29 10 21 28 c20
27 22 28 44 13 13 -8 24 -18 24 -21z m-146 -16 l27 -14 -24 -28 c-22 -26 -27
-27 -51 -16 l-27 12 23 30 c12 16 23 30 24 30 1 0 14 -6 28 -14z m98 -35 c4
-3 -3 -20 -16 -36 -22 -27 -26 -28 -50 -17 l-27 12 21 30 c21 30 48 34 72 11z
m-142 -70 c-29 -49 -38 -54 -69 -41 l-30 12 31 38 c29 37 31 38 54 23 18 -11
21 -19 14 -32z m68 3 c28 -8 27 -12 -7 -52 -25 -29 -31 -32 -55 -22 l-27 10
27 35 c29 38 28 38 62 29z m-128 -74 c0 -3 -9 -16 -19 -29 -16 -21 -21 -22
-42 -11 -35 18 -35 18 -10 44 19 20 26 22 47 12 13 -6 24 -13 24 -16z m58 -16
c27 -8 27 -12 -1 -45 -20 -24 -25 -25 -50 -14 l-28 11 21 27 c23 29 24 30 58
21z"/>
<path d="M422 2327 c37 -30 148 -90 148 -80 -1 9 -154 103 -167 103 -4 -1 4
-11 19 -23z"/>
<path d="M792 2223 c2 -12 12 -18 28 -18 16 0 26 6 28 18 3 13 -3 17 -28 17
-25 0 -31 -4 -28 -17z"/>
<path d="M736 2121 c15 -56 36 -92 75 -131 l41 -41 -1 -91 c-1 -50 -5 -96 -8
-102 -4 -6 1 -5 10 3 14 11 17 31 17 108 l0 95 -45 41 c-24 23 -56 65 -70 92
-14 28 -23 39 -19 26z"/>
<path d="M2148 1934 c-12 -12 -14 -23 -8 -43 5 -14 11 -43 15 -63 3 -21 11
-38 16 -38 6 0 8 9 4 20 -4 13 1 30 14 46 44 55 6 125 -41 78z m36 -23 c8 -13
-4 -42 -15 -35 -12 7 -12 44 0 44 6 0 12 -4 15 -9z"/>
<path d="M2097 1894 c-4 -4 -7 -20 -7 -36 0 -27 -2 -29 -34 -22 l-35 6 14 -50
c7 -28 16 -55 19 -61 11 -17 29 -13 22 5 -3 9 -9 28 -13 42 -6 26 -6 27 14 9
20 -17 21 -17 28 15 l7 33 10 -37 c6 -21 14 -38 19 -38 12 0 11 11 -2 68 -12
49 -30 77 -42 66z"/>
<path d="M585 1880 c-11 -5 -33 -11 -49 -15 -19 -4 -26 -9 -19 -16 7 -7 32 -1
74 15 41 16 55 25 39 25 -14 0 -34 -4 -45 -9z"/>
<path d="M1292 1871 c-64 -17 -79 -38 -23 -33 41 3 101 28 101 41 0 6 -3 10
-7 9 -5 0 -36 -8 -71 -17z"/>
<path d="M1977 1803 c-11 -10 -8 -143 3 -143 6 0 10 9 10 19 0 26 17 36 36 20
27 -22 29 1 4 47 -28 50 -43 67 -53 57z"/>
<path d="M1937 1741 c6 -40 -9 -58 -21 -26 -10 26 -26 16 -26 -15 0 -16 -4
-30 -10 -30 -5 0 -10 8 -10 18 0 10 -7 27 -15 38 -14 19 -14 19 -14 -1 -1 -25
33 -100 48 -109 10 -6 17 27 12 59 -1 6 7 -1 18 -15 11 -14 23 -22 26 -18 12
12 11 131 -2 135 -8 3 -10 -8 -6 -36z"/>
<path d="M2105 1693 c-67 -50 -279 -154 -392 -193 -51 -18 -93 -36 -93 -41 0
-13 16 -11 58 7 20 9 46 18 57 19 59 8 418 200 439 234 14 23 -21 9 -69 -26z"/>
<path d="M1776 1701 c-24 -26 -14 -49 24 -63 34 -11 35 -31 2 -36 -23 -4 -29
-17 -12 -27 17 -10 60 23 60 46 0 14 -10 25 -30 32 -34 13 -40 37 -9 37 12 0
19 5 17 13 -7 20 -33 19 -52 -2z"/>
<path d="M1671 1671 c-12 -8 -12 -19 -2 -67 13 -65 31 -95 31 -51 0 30 11 35
30 12 9 -11 16 -13 23 -6 7 7 5 16 -6 29 -10 11 -14 26 -10 40 10 39 -30 66
-66 43z"/>
<path d="M1586 1634 c-39 -39 -28 -117 17 -122 54 -7 77 101 27 128 -24 13
-26 13 -44 -6z m44 -34 c13 -24 -3 -60 -25 -60 -10 0 -15 11 -15 33 0 50 20
64 40 27z"/>
<path d="M1506 1626 c-43 -14 -60 -36 -27 -36 15 0 22 -8 26 -37 9 -54 13 -63
26 -63 11 0 7 57 -7 93 -3 10 2 18 15 22 12 3 21 13 21 21 0 16 -1 16 -54 0z"/>
<path d="M1979 1547 l-176 -82 14 -69 c21 -112 42 -176 58 -176 18 0 178 70
279 123 l78 41 -6 57 c-10 100 -36 189 -55 188 -9 -1 -95 -38 -192 -82z m196
41 c3 -13 13 -60 24 -106 l19 -83 -81 -40 c-95 -48 -259 -121 -262 -117 -5 6
-46 210 -43 212 2 2 55 26 118 55 63 29 135 63 160 76 56 30 58 30 65 3z"/>
<path d="M2109 1524 c-21 -25 -70 -46 -94 -40 -13 3 -26 2 -29 -3 -3 -5 -14
-7 -25 -4 -27 7 -71 -54 -71 -100 0 -45 22 -67 66 -67 42 0 82 20 148 71 27
22 52 39 57 39 25 0 14 94 -13 112 -18 11 -24 10 -39 -8z m33 -75 c-16 -16
-137 -59 -165 -59 -18 0 -27 -4 -25 -12 6 -17 35 -17 77 -1 52 20 59 15 18
-13 -50 -34 -98 -41 -120 -19 -21 21 -21 39 0 76 17 28 43 46 43 30 0 -5 -6
-12 -12 -14 -8 -3 -6 -6 5 -6 10 -1 20 6 23 14 4 10 13 13 25 10 21 -7 102 26
115 46 5 9 10 5 16 -16 4 -16 4 -33 0 -36z"/>
<path d="M1416 1584 c-10 -26 -7 -134 4 -134 6 0 10 11 10 24 0 32 25 40 43
13 29 -44 28 -8 -2 52 -32 63 -44 73 -55 45z"/>
<path d="M1301 1564 c-42 -53 -17 -124 44 -124 39 0 53 18 47 61 -5 31 -12 35
-43 18 -22 -11 -15 -34 7 -25 8 3 14 -1 14 -8 0 -19 -30 -29 -46 -15 -8 6 -14
27 -14 45 0 28 5 36 25 44 30 11 33 30 6 30 -11 0 -29 -12 -40 -26z"/>
<path d="M1530 1439 c-30 -11 -94 -29 -142 -40 -90 -21 -125 -47 -45 -34 78
13 261 70 265 83 5 16 -11 14 -78 -9z"/>
<path d="M1638 1382 c-77 -27 -104 -42 -76 -42 21 0 171 50 183 61 17 16 -28
8 -107 -19z"/>
<path d="M1648 1332 c-69 -23 -99 -42 -67 -42 17 0 163 51 174 61 16 16 -27 8
-107 -19z"/>
<path d="M1405 1313 c-33 -9 -71 -18 -85 -21 -25 -6 -25 -6 4 -10 33 -4 173
25 181 39 8 12 -28 9 -100 -8z"/>
<path d="M2151 1292 c-36 -19 -60 -37 -54 -39 12 -4 95 35 128 61 38 29 -7 16
-74 -22z"/>
<path d="M1666 1281 c-44 -15 -82 -33 -84 -40 -5 -15 2 -13 116 26 39 14 72
30 72 34 0 13 -17 10 -104 -20z"/>
<path d="M1466 1275 c-21 -7 -60 -16 -87 -20 -27 -4 -49 -11 -49 -17 0 -7 18
-8 48 -4 66 10 143 36 136 47 -3 5 -6 9 -7 9 -1 -1 -19 -7 -41 -15z"/>
<path d="M1683 1226 c-84 -27 -116 -46 -80 -46 21 0 160 49 171 60 19 19 -1
16 -91 -14z"/>
<path d="M2134 1240 c-21 -8 -42 -30 -29 -30 10 0 65 30 65 35 0 7 -11 5 -36
-5z"/>
<path d="M1475 1219 c-27 -10 -69 -18 -92 -19 -48 0 -57 -15 -15 -24 37 -9
189 43 166 56 -5 3 -31 -3 -59 -13z"/>
<path d="M1942 1197 c-40 -17 -68 -35 -64 -39 5 -5 46 8 93 31 99 46 76 53
-29 8z"/>
<path d="M1696 1173 c-93 -34 -103 -40 -94 -48 6 -7 169 52 182 65 20 20 -2
16 -88 -17z"/>
<path d="M1955 1155 c-38 -19 -62 -34 -53 -35 18 0 136 48 153 62 22 19 -35 4
-100 -27z"/>
<path d="M1443 1155 c-91 -23 -112 -35 -66 -35 40 0 163 38 163 50 0 12 6 13
-97 -15z"/>
<path d="M1975 1126 c-43 -17 -72 -32 -63 -34 16 -3 148 52 148 62 0 3 -1 5
-2 5 -2 -1 -39 -15 -83 -33z"/>
<path d="M1703 1116 c-82 -27 -117 -47 -80 -45 30 1 181 56 185 67 5 15 6 15
-105 -22z"/>
<path d="M1443 1096 c-80 -20 -108 -36 -60 -36 27 0 118 24 142 37 34 20 -1
19 -82 -1z"/>
<path d="M1453 1036 c-70 -20 -94 -36 -54 -36 28 0 149 39 156 50 9 14 -20 10
-102 -14z"/>
<path d="M1450 500 c-91 -4 -244 -11 -340 -14 -96 -4 -178 -10 -182 -14 -4 -4
269 -7 607 -7 338 0 611 3 607 7 -5 5 -48 10 -97 13 -50 3 -128 7 -175 10
-191 12 -262 13 -420 5z"/>
<path d="M2164 468 c-6 -9 -4 -10 54 -13 28 -2 42 1 42 9 0 14 -88 18 -96 4z"/>
<path d="M2406 465 c-3 -9 1 -18 10 -22 19 -7 39 11 30 26 -10 16 -33 13 -40
-4z"/>
<path d="M2474 468 c-3 -5 -2 -14 4 -20 12 -12 42 -4 42 11 0 13 -39 21 -46 9z"/>
<path d="M1170 450 l-95 -5 70 -6 c125 -10 895 -9 895 1 0 6 -77 10 -197 10
-109 0 -283 1 -388 3 -104 1 -233 0 -285 -3z"/>
</g>
</svg>
