<?xml version="1.0" standalone="no"?>
<!DOCTYPE svg PUBLIC "-//W3C//DTD SVG 20010904//EN"
 "http://www.w3.org/TR/2001/REC-SVG-20010904/DTD/svg10.dtd">
<svg version="1.0" xmlns="http://www.w3.org/2000/svg"
 width="300.000000pt" height="300.000000pt" viewBox="0 0 300.000000 300.000000"
 preserveAspectRatio="xMidYMid meet">
<metadata>
Created by potrace 1.10, written by Peter Selinger 2001-2011
</metadata>
<g transform="translate(0.000000,300.000000) scale(0.100000,-0.100000)"
fill="#000000" stroke="none">
<path d="M1322 2730 c-30 -13 -33 -23 -24 -105 5 -52 11 -70 22 -70 10 0 15
10 15 30 0 24 5 31 25 35 35 7 32 34 -5 40 -18 3 -30 11 -30 20 0 9 11 16 30
18 50 5 59 10 45 27 -14 17 -43 18 -78 5z"/>
<path d="M2115 2714 c-24 -26 -30 -46 -25 -89 3 -30 31 -53 69 -57 30 -3 37 1
54 30 18 30 18 35 4 49 -10 11 -24 13 -46 8 -34 -7 -43 -35 -11 -35 11 0 20
-5 20 -11 0 -16 -41 -6 -53 12 -13 20 -1 68 18 74 49 15 48 15 35 30 -18 22
-38 18 -65 -11z"/>
<path d="M1453 2718 c-19 -9 -23 -19 -22 -57 2 -85 9 -96 59 -96 33 0 45 4 45
15 0 11 -9 14 -32 12 -44 -3 -46 26 -3 35 43 8 39 33 -5 33 -50 0 -48 28 2 32
27 2 39 8 41 21 3 13 -3 17 -30 16 -18 0 -43 -5 -55 -11z"/>
<path d="M1599 2718 c-22 -17 -32 -107 -15 -130 21 -29 100 -21 89 8 -4 11
-14 13 -33 9 -19 -4 -29 -2 -33 9 -4 11 2 16 25 18 46 4 49 28 3 28 -46 0 -43
24 4 28 24 3 31 8 29 20 -4 21 -47 27 -69 10z"/>
<path d="M1699 2703 c-2 -16 -2 -50 1 -78 l5 -50 45 0 c35 0 45 4 48 18 3 14
-4 17 -32 17 l-36 0 1 49 c2 49 -5 71 -20 71 -5 0 -10 -12 -12 -27z"/>
<path d="M1845 2724 c-6 -2 -10 -36 -9 -76 1 -61 4 -74 19 -76 24 -5 41 13 28
30 -5 7 -9 36 -7 65 2 50 -7 65 -31 57z"/>
<path d="M2027 2714 c-4 -4 -7 -26 -8 -48 0 -36 -2 -39 -12 -22 -38 59 -49 68
-64 53 -15 -15 -21 -107 -8 -127 11 -18 25 0 25 31 0 37 10 37 32 -1 34 -60
72 -20 66 69 -3 42 -16 60 -31 45z"/>
<path d="M1155 2689 c-10 -31 12 -49 30 -26 15 21 10 47 -10 47 -8 0 -17 -9
-20 -21z"/>
<path d="M1215 2688 c-8 -21 0 -48 14 -48 16 0 20 28 6 47 -13 17 -14 17 -20
1z"/>
<path d="M1840 2512 c-51 -5 -60 -17 -60 -78 0 -71 23 -97 83 -92 30 3 43 9
45 21 3 14 -4 17 -42 17 -33 0 -46 4 -46 14 0 9 12 16 33 18 45 4 44 33 -2 34
-52 0 -50 21 3 29 27 4 46 13 46 20 0 17 -17 21 -60 17z"/>
<path d="M1326 2497 c-16 -12 -17 -20 -8 -81 12 -73 24 -96 53 -96 62 0 100
58 60 91 -18 15 -20 22 -11 38 22 42 -51 79 -94 48z m61 -34 c2 -6 -5 -17 -16
-23 -19 -10 -21 -8 -21 15 0 19 5 26 17 23 9 -2 18 -8 20 -15z m21 -85 c-7
-20 -48 -23 -48 -4 0 11 9 16 26 16 16 0 24 -5 22 -12z"/>
<path d="M1704 2461 c7 -48 0 -71 -24 -71 -14 0 -22 13 -32 47 -16 55 -38 69
-38 24 0 -42 24 -97 47 -109 23 -12 58 1 72 27 15 27 14 94 -1 109 -22 22 -31
13 -24 -27z"/>
<path d="M1484 2423 c4 -36 10 -71 13 -76 7 -12 82 -2 97 13 16 16 -13 31 -46
24 -27 -5 -28 -4 -28 34 0 51 -8 72 -27 72 -13 0 -15 -10 -9 -67z"/>
<path d="M2140 2380 c0 -24 26 -38 42 -22 8 8 8 15 -2 27 -18 21 -40 19 -40
-5z"/>
<path d="M1988 2383 c-20 -3 -28 -10 -28 -25 0 -14 5 -18 16 -14 9 3 27 9 40
12 14 4 23 11 21 17 -4 13 -14 15 -49 10z"/>
<path d="M2070 2370 c0 -15 5 -20 18 -18 9 2 17 10 17 18 0 8 -8 16 -17 18
-13 2 -18 -3 -18 -18z"/>
<path d="M810 2297 c-3 -3 -59 -8 -124 -11 -101 -5 -125 -9 -153 -29 -37 -25
-73 -89 -73 -130 0 -25 -13 -33 -43 -28 -4 1 -41 2 -81 2 -116 1 -171 -41
-183 -140 -5 -43 -2 -53 18 -74 13 -13 29 -33 35 -43 6 -10 23 -27 38 -38 24
-18 45 -21 167 -24 l139 -4 0 -59 0 -59 -42 -21 c-47 -23 -119 -79 -156 -119
-39 -42 -62 -100 -62 -161 0 -46 5 -63 29 -95 31 -44 71 -74 98 -74 10 0 25
-4 33 -10 12 -8 12 -11 -3 -28 -10 -10 -15 -26 -11 -35 7 -19 68 -41 89 -33
13 5 15 -21 15 -173 0 -244 26 -477 59 -530 5 -8 29 -17 53 -20 44 -7 166 4
177 15 3 3 8 76 11 161 l5 156 86 2 87 2 6 -56 c3 -31 9 -98 12 -150 6 -77 11
-98 30 -120 21 -25 26 -26 128 -26 121 0 121 0 131 78 6 40 10 47 24 41 92
-39 90 -39 356 -38 263 1 310 6 329 37 14 22 -42 81 -100 103 -33 12 -43 22
-48 45 -8 44 -46 57 -91 34 -19 -11 -38 -15 -42 -11 -4 5 -2 11 5 13 6 3 12 9
12 15 0 7 -14 8 -38 4 l-39 -6 -1 37 c-2 46 -15 55 -74 49 l-48 -5 0 49 c0 53
-22 80 -66 80 -35 0 -45 21 -35 75 9 46 8 48 -28 84 l-38 38 24 27 c35 41 34
77 -4 118 l-25 26 22 30 c20 27 21 35 11 59 -6 15 -20 39 -31 53 l-20 25 0
-26 c0 -14 5 -40 11 -57 9 -25 8 -36 -5 -54 -10 -13 -16 -43 -16 -74 0 -29 -7
-88 -15 -131 -9 -43 -22 -161 -30 -263 -18 -223 -34 -366 -44 -393 -7 -19 -15
-20 -96 -19 -49 1 -90 4 -91 5 -4 4 -12 66 -25 203 -6 65 -15 125 -21 131 -13
16 -260 18 -289 3 -29 -16 -23 -30 12 -30 l31 0 -4 -148 -3 -147 -81 -3 -81
-3 -12 43 c-28 100 -40 308 -33 593 6 301 5 661 -3 711 l-5 30 67 -2 c78 -3
163 8 211 27 28 12 34 12 42 -1 7 -11 4 -17 -10 -24 -21 -10 -26 -21 -11 -30
5 -4 21 8 36 26 23 28 25 32 10 40 -9 5 -138 9 -288 9 -150 0 -291 3 -314 8
-38 7 -100 38 -91 46 1 1 39 6 83 9 44 4 118 11 165 16 126 13 311 29 427 35
l102 6 3 -48 c2 -37 7 -49 22 -51 27 -6 39 12 31 47 -5 23 -12 31 -28 31 -20
1 -21 1 -4 11 22 13 83 7 115 -10 12 -7 27 -9 32 -6 21 13 8 37 -27 52 -45 18
-222 19 -411 3 -271 -25 -331 -31 -402 -40 -41 -5 -92 -9 -112 -10 -35 0 -38
2 -38 29 0 44 16 78 46 98 24 16 48 17 188 15 147 -2 164 -1 194 18 24 15 32
27 32 49 0 17 -4 33 -10 36 -5 3 -10 -1 -10 -9 0 -33 -38 -56 -89 -56 -49 0
-50 1 -45 27 16 87 55 111 196 121 147 10 334 7 397 -7 129 -28 183 -120 222
-381 11 -74 26 -173 34 -220 7 -47 17 -115 21 -152 4 -49 10 -68 20 -68 16 0
74 86 74 110 0 9 -18 34 -40 55 -22 21 -40 45 -40 53 0 7 11 32 24 55 13 23
23 49 21 58 -2 10 -22 36 -45 59 l-41 41 25 44 c14 24 26 52 26 62 0 10 -19
34 -42 54 l-42 37 13 39 c19 56 12 73 -39 100 -25 13 -62 35 -82 49 -64 45
-114 57 -253 62 -71 2 -132 2 -135 -1z m569 -541 c12 -14 5 -46 -9 -46 -4 0
-10 14 -12 30 -5 32 3 38 21 16z m-820 -258 c1 -40 -3 -49 -28 -67 -16 -12
-34 -21 -39 -21 -26 0 -20 -23 17 -62 40 -41 41 -43 40 -113 -1 -86 -10 -119
-32 -123 -15 -3 -17 4 -15 49 l3 54 -43 6 c-81 11 -138 73 -135 150 2 74 36
120 148 200 l70 50 7 -38 c4 -21 7 -59 7 -85z m851 22 c0 -16 -4 -32 -10 -35
-6 -4 -10 10 -10 35 0 25 4 39 10 35 6 -3 10 -19 10 -35z m-850 -141 c0 -28
-1 -29 -16 -14 -13 12 -14 19 -4 30 17 21 20 19 20 -16z m853 -222 c3 -7 -1
-26 -8 -42 l-13 -30 -1 43 c-1 40 11 57 22 29z m3 -210 c18 -88 62 -165 133
-234 73 -72 152 -113 348 -180 29 -9 63 -25 75 -35 l23 -18 -40 -1 c-22 0 -49
-3 -60 -5 -11 -3 -114 -6 -230 -6 -196 -1 -214 0 -268 21 l-59 23 6 42 c10 65
14 122 21 251 12 265 21 289 51 142z"/>
<path d="M1411 735 c-1 -35 36 -103 77 -142 47 -45 64 -59 75 -60 4 -1 41 -9
82 -18 42 -9 81 -15 88 -12 6 2 -6 7 -28 11 -146 26 -232 85 -272 186 -12 30
-22 46 -22 35z"/>
<path d="M1400 585 c-19 -23 -1 -39 21 -19 10 9 19 21 19 26 0 13 -27 9 -40
-7z"/>
<path d="M1452 541 c-12 -10 -22 -21 -22 -25 0 -13 28 -5 43 12 32 35 15 45
-21 13z"/>
<path d="M1550 2236 c0 -40 -4 -48 -42 -80 -36 -30 -40 -38 -28 -46 25 -17 41
-11 76 25 37 40 52 92 35 124 -21 38 -41 26 -41 -23z"/>
<path d="M916 2184 c-12 -31 -6 -74 14 -94 29 -29 90 -27 119 4 25 27 14 44
-18 26 -51 -27 -95 -6 -95 44 0 38 -10 47 -20 20z"/>
<path d="M950 2170 c0 -38 27 -52 47 -24 20 27 12 49 -20 52 -24 3 -27 0 -27
-28z"/>
<path d="M562 2178 c-16 -16 -15 -33 3 -48 20 -17 47 5 43 34 -4 24 -28 32
-46 14z"/>
<path d="M1013 2053 c-7 -2 -13 -17 -13 -31 0 -19 3 -23 9 -13 6 9 11 10 15 2
13 -21 27 -11 24 16 -3 27 -14 35 -35 26z"/>
<path d="M250 2015 c-14 -17 -5 -35 19 -35 25 0 32 10 20 31 -12 23 -22 24
-39 4z"/>
<path d="M353 2023 c-14 -5 -18 -39 -5 -46 13 -8 52 12 52 27 0 11 -24 29 -33
25 -1 0 -8 -3 -14 -6z"/>
<path d="M814 1699 c-10 -17 13 -36 27 -22 12 12 4 33 -11 33 -5 0 -12 -5 -16
-11z"/>
<path d="M864 1699 c-3 -6 -2 -15 4 -21 13 -13 32 -2 32 18 0 16 -26 19 -36 3z"/>
<path d="M760 1660 c0 -14 -83 -60 -108 -60 -12 0 -22 -4 -22 -10 0 -14 25
-12 68 5 54 23 104 75 72 75 -5 0 -10 -4 -10 -10z"/>
<path d="M1250 1636 c0 -7 7 -19 15 -26 12 -10 16 -9 21 3 3 9 3 21 -1 27 -9
15 -35 12 -35 -4z"/>
<path d="M1202 1624 c2 -11 11 -20 22 -22 13 -3 17 1 14 14 -2 11 -11 20 -22
22 -13 3 -17 -1 -14 -14z"/>
<path d="M1237 1563 c-14 -13 -6 -23 17 -23 13 0 29 7 36 15 11 13 8 15 -17
15 -16 0 -33 -3 -36 -7z"/>
<path d="M1304 1503 c15 -96 18 -223 6 -253 -7 -16 -16 -30 -20 -30 -20 0 -19
-34 1 -53 l22 -21 -21 -9 c-12 -6 -22 -16 -22 -24 0 -18 -26 -17 -34 2 -6 17
-51 20 -61 5 -3 -5 -13 -10 -21 -10 -12 0 -14 9 -10 48 22 197 16 312 -16 312
-10 0 -13 -23 -14 -82 0 -46 -2 -128 -5 -184 -3 -76 -1 -105 10 -117 16 -20
62 -22 80 -4 10 10 14 9 22 -5 12 -22 55 -23 67 -3 4 9 19 17 31 20 34 6 36
12 18 50 -16 33 -15 37 4 82 18 41 20 61 15 138 -6 100 -22 161 -44 170 -11 4
-13 -2 -8 -32z"/>
<path d="M820 1031 c0 -15 6 -21 21 -21 14 0 19 5 17 17 -5 26 -38 29 -38 4z"/>
<path d="M743 615 c0 -33 2 -45 4 -27 2 18 2 45 0 60 -2 15 -4 0 -4 -33z"/>
<path d="M404 449 c-3 -6 -2 -15 4 -21 15 -15 46 -5 50 15 3 12 -3 17 -22 17
-14 0 -28 -5 -32 -11z"/>
<path d="M2087 453 c-17 -16 -6 -35 18 -31 13 3 26 0 28 -6 3 -7 9 -6 21 3 16
13 16 16 1 30 -14 14 -17 14 -25 1 -7 -10 -10 -11 -10 -2 0 13 -22 17 -33 5z"/>
<path d="M2240 429 c0 -25 33 -22 38 4 2 12 -3 17 -17 17 -15 0 -21 -6 -21
-21z"/>
<path d="M2296 435 c-9 -24 -8 -25 15 -25 14 0 19 5 17 17 -4 23 -24 27 -32 8z"/>
<path d="M881 425 c8 -7 108 -9 116 -2 3 4 -22 7 -57 7 -35 0 -61 -2 -59 -5z"/>
<path d="M273 404 c-3 -9 0 -21 7 -27 9 -9 14 -9 17 -1 2 7 13 9 24 7 17 -5
20 -2 17 13 -4 24 -56 30 -65 8z"/>
<path d="M494 389 c-35 -13 -35 -25 -1 -41 37 -17 131 -25 107 -8 -8 5 -32 10
-52 10 -20 0 -39 4 -42 9 -4 5 4 7 16 4 19 -4 20 -3 8 6 -13 9 -13 11 2 11 9
0 19 4 22 9 7 11 -32 11 -60 0z"/>
<path d="M1435 371 c-3 -2 -13 -5 -23 -6 -17 -2 -41 -10 -77 -25 -18 -8 -17
-9 8 -9 15 -1 44 6 64 14 19 8 44 15 54 15 11 0 19 4 19 8 0 8 -38 11 -45 3z"/>
<path d="M1667 364 c-4 -4 -7 -18 -7 -31 0 -27 25 -31 34 -6 7 18 -16 48 -27
37z"/>
<path d="M1724 346 c-9 -24 3 -47 21 -40 18 7 16 45 -2 52 -7 2 -16 -3 -19
-12z"/>
<path d="M830 335 l-45 -13 73 -2 c149 -3 203 -2 208 3 5 5 -35 11 -151 21
-22 3 -60 -2 -85 -9z"/>
<path d="M2105 330 c-4 -7 -3 -16 3 -22 14 -14 45 -2 40 15 -6 16 -34 21 -43
7z"/>
<path d="M435 270 c-9 -15 4 -30 26 -30 12 0 19 7 19 20 0 21 -33 29 -45 10z"/>
</g>
</svg>
